<?xml version="1.0" encoding="utf-8"?>
<!-- Generator: Adobe Illustrator 16.0.0, SVG Export Plug-In . SVG Version: 6.00 Build 0)  -->
<!DOCTYPE svg PUBLIC "-//W3C//DTD SVG 1.1//EN" "http://www.w3.org/Graphics/SVG/1.1/DTD/svg11.dtd">
<svg version="1.1" id="Layer_1" xmlns="http://www.w3.org/2000/svg" xmlns:xlink="http://www.w3.org/1999/xlink" x="0px" y="0px"
	 width="210.169px" height="124.891px" viewBox="0 0 210.169 124.891" enable-background="new 0 0 210.169 124.891"
	 xml:space="preserve">
<path fill="#BEBEBC" d="M85.213,14.008c0,0-10.377-4.521-7.653,12.423c1.719,10.687,15.076,5.624,28.235,5.245
	C118.953,31.297,85.213,14.008,85.213,14.008z"/>
<path fill="#FFF7EE" d="M112.217,47.553C95.145,28.316,65.906,0.306,65.906,0.306c8.107-2.599,36.278,11.551,75.639,36.265"/>
<g>
	<g>
		<defs>
			<path id="XMLID_3_" d="M38.91,52.868L18.968,36.049l4.141,28.381c0,0-22.841,0.604-22.4,8.54
				c0.442,7.935,160.106,2.131,187.844,1.906c50.617-0.411-0.455-52.976-37.436-54.646C121.803,18.906,38.91,52.868,38.91,52.868z"
				/>
		</defs>
		<use xlink:href="#XMLID_3_"  overflow="visible" fill="#FFFFFF"/>
		<clipPath id="XMLID_2_">
			<use xlink:href="#XMLID_3_"  overflow="visible"/>
		</clipPath>
		<path clip-path="url(#XMLID_2_)" fill="#C8E1E6" d="M185.306,91.006c-14.321-19.82-42.755-26.875-65.461-29.835
			c-27.569-3.592-54.671-1.894-80.961,0.677c-12.234,1.197-24.29,2.956-36.162,5.095c-3.074,0.555-1.484,4.471,1.627,4.394
			c23.947-0.59,47.115-4.014,71.05-4.729c25.226-0.756,52.778-0.355,78.306,9.389c10.257,3.92,19.761,9.989,27.718,17.318
			C183.623,95.345,187.048,93.413,185.306,91.006z"/>
		<path clip-path="url(#XMLID_2_)" fill="#BA2E26" d="M179.388,96.217c-14.324-19.822-42.757-26.877-65.462-29.838
			c-27.57-3.592-54.673-1.895-80.963,0.677C20.73,68.252,8.675,70.012-3.197,72.153c-3.076,0.551-1.485,4.47,1.627,4.391
			c23.95-0.589,47.113-4.014,71.05-4.729c25.225-0.752,52.777-0.353,78.304,9.392c10.258,3.917,19.761,9.987,27.718,17.317
			C177.704,100.555,181.126,98.622,179.388,96.217z"/>
		<path clip-path="url(#XMLID_2_)" fill="#BA2E26" d="M41.204,49.546c-3-3.711-11.974-2.052-16.013-1.627
			c-5.691,0.6-13.133,1.217-18.164,4.131c-1.6,0.926-0.784,3.082,0.852,3.257c5.369,0.57,11.411-1.848,16.679-2.789
			c3.293-0.59,6.574-1.021,9.914-1.218c2.111-0.128,4.735,0.287,6.604-0.804C41.435,50.286,41.446,49.847,41.204,49.546z"/>
	</g>
</g>
<path fill="#FFFFFF" d="M20.765,68.088L10.368,80.003c0,0,10.372,1.186,14.273-1.544c6.462-4.518,11.221-11.684,11.221-11.684"/>
<path fill="#BEBEBC" d="M121.416,93.279c3.038-8.353,0.616-16.696,0.616-16.696s-18.192-4.025-39.292-3.728
	c-4.021,0.057-7.5-0.041-8.233,16.653c-0.45,10.278,11.205,9.571,23.688,9.681C104.405,99.977,119.061,99.754,121.416,93.279z"/>
<path fill="#FFFFFF" d="M155.982,62.829C89.235,98.602,60.96,128.293,54.62,124.575l55.663-68.534"/>
<path fill="#39343A" d="M162.73,38.277l1.119,10.974l40.017-0.36c0,0-5.376-8.098-13.903-12.908L162.73,38.277z"/>
<g>
	<path fill="#39343A" d="M149.695,45.161c-0.815,1.645-2.803,2.315-4.438,1.498c-1.636-0.819-2.305-2.812-1.489-4.459
		c0.812-1.646,2.8-2.317,4.436-1.498C149.843,41.518,150.508,43.517,149.695,45.161z"/>
	<path fill="#39343A" d="M137.483,45.562c-0.812,1.645-2.799,2.313-4.435,1.498c-1.639-0.818-2.304-2.813-1.491-4.458
		c0.813-1.647,2.8-2.318,4.438-1.499C137.63,41.921,138.297,43.917,137.483,45.562z"/>
	<path fill="#39343A" d="M125.273,45.962c-0.812,1.645-2.798,2.315-4.436,1.496c-1.637-0.815-2.302-2.813-1.491-4.457
		c0.816-1.646,2.802-2.315,4.437-1.499C125.421,42.319,126.087,44.316,125.273,45.962z"/>
	<path fill="#39343A" d="M113.066,46.364c-0.814,1.644-2.801,2.312-4.436,1.497c-1.638-0.819-2.305-2.817-1.492-4.462
		c0.813-1.645,2.8-2.315,4.438-1.497C113.213,42.72,113.879,44.717,113.066,46.364z"/>
	<path fill="#39343A" d="M100.856,46.762c-0.813,1.646-2.801,2.316-4.437,1.499c-1.636-0.817-2.303-2.815-1.49-4.46
		c0.813-1.646,2.801-2.317,4.437-1.499C101.003,43.118,101.669,45.117,100.856,46.762z"/>
</g>
</svg>