<?xml version="1.0" encoding="utf-8"?>
<!-- Generator: Adobe Illustrator 16.0.0, SVG Export Plug-In . SVG Version: 6.00 Build 0)  -->
<!DOCTYPE svg PUBLIC "-//W3C//DTD SVG 1.1//EN" "http://www.w3.org/Graphics/SVG/1.1/DTD/svg11.dtd">
<svg version="1.1" id="Layer_1" xmlns="http://www.w3.org/2000/svg" xmlns:xlink="http://www.w3.org/1999/xlink" x="0px" y="0px"
	 width="317.745px" height="512.733px" viewBox="0.002 0 317.745 512.733" enable-background="new 0.002 0 317.745 512.733"
	 xml:space="preserve">
<path fill="#848484" d="M139.686,431.666c0,0-16.865,70.305-5.553,77.023c11.312,6.717,7.88-48.105,7.88-48.105l8.904-0.766
	l27.119,0.766l-0.805-28.916l-0.588-5.316L139.686,431.666z"/>
<path fill="#848484" d="M177.643,431.261c0,0,13.426,69.424,4.421,76.057c-9.005,6.635-6.272-47.502-6.272-47.502l-7.088-0.756
	l-21.588,0.756l0.641-28.555l0.468-5.25L177.643,431.261z"/>
<rect x="141.006" y="456.22" fill="#848484" width="36.673" height="35.432"/>
<circle fill="#D8D8D8" cx="158.421" cy="475.55" r="17.766"/>
<g>
	<g>
		<g>
			<path fill="#F2F2F2" d="M177.395,488.179l-11.55-11.489c-0.121-0.12-0.244-0.217-0.366-0.31
				c-0.316-0.294-0.738-0.462-1.203-0.461l-11.917,0.031c-0.464,0.001-0.886,0.172-1.2,0.467c-0.123,0.094-0.246,0.195-0.366,0.316
				l-11.491,11.546c-0.584,0.59-0.873,1.251-0.643,1.48l2.816,2.801c0.229,0.229,1.034-0.063,1.62-0.651l7.803-7.701l0.033,12.616
				c0.002,0.975,0.51,1.741,1.485,1.738l11.917-0.03c0.975-0.002,1.478-0.771,1.475-1.747l-0.032-12.616l7.844,7.661
				c0.588,0.585,1.323,0.873,1.552,0.643l2.837-2.816C178.24,489.425,177.983,488.765,177.395,488.179z"/>
		</g>
		<g>
			<polygon fill="#4D4D4D" points="148.778,486.302 144.616,482.941 146.012,481.539 150.217,484.882 			"/>
		</g>
		<g>
			<polygon fill="#4D4D4D" points="167.879,486.252 172.024,482.871 170.621,481.474 166.432,484.841 			"/>
		</g>
		<g>
			<path fill="#4D4D4D" d="M163.996,491.709c0.002,0.976-0.786,1.768-1.761,1.77l-7.776,0.021c-0.974,0.003-1.767-0.785-1.77-1.761
				l-0.026-10.156c1.761-1.77,0,0,1.761-1.77l7.776-0.021c1.771,1.762,0,0,1.771,1.762L163.996,491.709z"/>
		</g>
		<g>
			<g>
				<rect x="153.561" y="483.086" fill="#29ABE2" width="1.785" height="1.189"/>
			</g>
			<g>
				
					<rect x="157.132" y="483.076" transform="matrix(1 -0.0025 0.0025 1 -1.1911 0.3915)" fill="#D4145A" width="2.378" height="1.19"/>
			</g>
			<g>
				
					<rect x="161.298" y="483.066" transform="matrix(1 -0.0033 0.0033 1 -1.5875 0.5352)" fill="#29ABE2" width="1.784" height="1.189"/>
			</g>
		</g>
		<g>
			
				<rect x="153.572" y="484.861" transform="matrix(1 -0.0026 0.0026 1 -1.2501 0.4075)" fill="#F2F2F2" width="9.523" height="5.95"/>
		</g>
		<g>
			<g>
				<circle fill="#F2F2F2" cx="155.616" cy="492.183" r="0.472"/>
			</g>
			<g>
				<circle fill="#F2F2F2" cx="158.344" cy="492.176" r="0.471"/>
			</g>
			<g>
				<circle fill="#F2F2F2" cx="161.072" cy="492.169" r="0.472"/>
			</g>
		</g>
	</g>
	<g>
		
			<rect x="150.954" y="498.101" transform="matrix(1 -0.0025 0.0025 1 -1.2661 0.3878)" fill="#F2F2F2" width="6.233" height="14.377"/>
	</g>
	<g>
		
			<rect x="159.568" y="498.077" transform="matrix(1 -0.0028 0.0028 1 -1.4242 0.4608)" fill="#F2F2F2" width="6.233" height="14.379"/>
	</g>
	<g>
		
			<rect x="150.894" y="496.804" transform="matrix(1 -0.0026 0.0026 1 -1.2983 0.4147)" fill="#4D4D4D" width="14.981" height="2.57"/>
	</g>
	<g>
		<circle fill="#F2F2F2" cx="158.288" cy="470.663" r="8.109"/>
	</g>
	<g>
		<ellipse transform="matrix(1 -0.0027 0.0027 1 -1.2637 0.4263)" fill="#4D4D4D" cx="158.29" cy="471.253" rx="6.37" ry="6.56"/>
	</g>
	<g>
		<path fill="#333333" d="M151.919,471.27c-0.069-0.847,0.06-1.713,0.331-2.534c0.289-0.816,0.742-1.578,1.326-2.232
			c1.162-1.316,2.919-2.107,4.696-2.106c1.777-0.012,3.538,0.771,4.707,2.083c0.589,0.649,1.045,1.411,1.338,2.225
			c0.275,0.82,0.407,1.686,0.343,2.531c-0.122-1.689-0.839-3.296-2.011-4.439c-1.162-1.146-2.758-1.824-4.375-1.806
			c-1.618-0.01-3.209,0.676-4.368,1.827C152.74,467.968,152.032,469.58,151.919,471.27z"/>
	</g>
	<g>
		<path fill="#4D4D4D" d="M139.225,496.007c-0.412,0.001-0.812-0.212-1.034-0.593c-0.33-0.567-0.136-1.297,0.431-1.627
			c0.158-0.092,0.285-0.22,0.378-0.381c0.14-0.238,0.176-0.519,0.104-0.788c-0.072-0.269-0.244-0.494-0.484-0.633
			c-0.241-0.141-0.522-0.177-0.791-0.105c-0.269,0.072-0.493,0.244-0.632,0.484c-0.33,0.568-1.059,0.763-1.626,0.435
			c-0.569-0.33-0.764-1.057-0.434-1.627c0.458-0.791,1.196-1.355,2.079-1.592s1.806-0.114,2.597,0.344
			c1.633,0.945,2.192,3.044,1.248,4.676c-0.3,0.518-0.729,0.947-1.242,1.246C139.631,495.955,139.427,496.007,139.225,496.007z"/>
	</g>
	<g>
		<path fill="#4D4D4D" d="M177.482,495.909c-0.202,0-0.406-0.051-0.594-0.158c-0.514-0.296-0.947-0.725-1.248-1.237
			c-0.953-1.63-0.405-3.731,1.223-4.685c0.789-0.462,1.71-0.59,2.596-0.357c0.883,0.23,1.625,0.794,2.086,1.581
			c0.333,0.567,0.143,1.296-0.426,1.629c-0.566,0.332-1.296,0.142-1.627-0.426c-0.142-0.239-0.366-0.411-0.637-0.48
			c-0.269-0.071-0.548-0.032-0.789,0.108c-0.24,0.14-0.411,0.366-0.481,0.636c-0.069,0.269-0.031,0.55,0.11,0.789
			c0.092,0.158,0.221,0.286,0.379,0.378c0.569,0.326,0.766,1.055,0.439,1.624C178.293,495.692,177.894,495.907,177.482,495.909z"/>
	</g>
	<g>
		<path fill="#666666" d="M160.831,476.316c-0.197,0-0.389-0.098-0.503-0.273c-0.177-0.276-0.097-0.646,0.181-0.822
			c3.047-1.952,1.457-5.527,1.389-5.68c-0.137-0.298-0.004-0.651,0.294-0.787c0.3-0.137,0.653-0.006,0.788,0.293
			c0.734,1.606,1.298,5.173-1.829,7.176C161.051,476.286,160.94,476.315,160.831,476.316z"/>
	</g>
	<g>
		<circle fill="#666666" cx="161.478" cy="467.677" r="0.669"/>
	</g>
</g>
<g>
	<g>
		<g>
			<g>
				<path fill="#848484" d="M185.172,504.832c0,4.365-4.634,7.902-10.352,7.902h-34.176c-5.718,0-10.352-3.537-10.352-7.902v-16.562
					c0-4.367,4.634-7.906,10.352-7.906c0,0,5.697,13.283,17.528,13.283c11.83,0,17.956-13.283,17.956-13.283
					c5.717,0,9.043,3.539,9.043,7.906V504.832L185.172,504.832z"/>
			</g>
		</g>
	</g>
	<path fill="#F4F2EB" d="M137.234,381.644c0,0-22.986-47.455-58.902-114.419c-0.307-0.574-0.612-1.144-0.921-1.72
		c-14.408-26.834-26.019-54.374-33.647-81.363c-7.604-26.9-11.249-53.25-9.76-77.811c0.796-13.127,3.053-25.745,6.963-37.658
		c4.461-13.591,10.516-23.862,17.119-31.604c-4.92,0.627-32.754,6.876-51.5,68.557c-0.072,0.235-0.137,0.47-0.208,0.704
		c-7.912,26.489-7.992,52.964-2.813,77.811c6.539,31.374,21.458,60.15,39.577,83.083c4.171,5.277,8.51,10.251,12.955,14.872
		c39.195,40.725,74.263,104.827,74.263,104.827s6.149,0.449,9.046-3.559C138.172,382.617,137.234,381.644,137.234,381.644z"/>
	<path fill="#F4F2EB" d="M311.37,106.332c-0.068-0.234-0.133-0.469-0.205-0.704c-18.748-61.681-46.578-67.93-51.5-68.557
		c6.604,7.742,12.658,18.013,17.117,31.604c3.91,11.913,6.168,24.531,6.965,37.658c1.486,24.56-2.156,50.911-9.761,77.811
		c-7.63,26.99-19.239,54.529-33.647,81.363c-0.31,0.576-0.613,1.146-0.922,1.72c-35.916,66.964-58.9,114.419-58.9,114.419
		s-0.939,0.973-2.17,1.721c2.896,4.008,9.044,3.559,9.044,3.559s35.069-64.102,74.264-104.827c4.445-4.62,8.785-9.593,12.954-14.872
		c18.12-22.933,33.039-51.708,39.578-83.083C319.364,159.295,319.282,132.821,311.37,106.332z"/>
	<path fill="#F4F2EB" d="M33.813,110.342c-0.133,3.518-0.165,7.07-0.097,10.653l0.178,5.349c0.168,3.639,0.436,7.309,0.797,11.005
		l0.585,5.35c0.405,3.331,0.884,6.682,1.435,10.051l0.5,2.992l0.354,1.912c0.142,0.769,0.284,1.538,0.431,2.306l1.091,5.35
		c1.332,6.236,2.889,12.517,4.676,18.833c7.629,26.99,19.24,54.529,33.647,81.362c0.31,0.576,0.615,1.146,0.921,1.721
		c35.916,66.964,58.902,114.419,58.902,114.419s0.938,0.972,2.17,1.72c1.914,1.161,4.533,1.779,5.434-2.641
		c-0.857-0.73-1.415-1.344-1.415-1.344s-18.066-63.271-35.955-112.154c-1.544-4.217-3.087-8.326-4.613-12.276
		c-8.176-21.135-16.725-44.719-22.59-70.806c-0.259-1.148-0.504-2.303-0.755-3.461l-1.1-5.349c-0.171-0.875-0.333-1.758-0.499-2.638
		l-0.956-5.349c-0.517-3.051-0.991-6.133-1.421-9.246h-0.141h-0.161v-2.224c-0.325-2.499-0.615-5.021-0.878-7.564v2.168
		l-0.311-5.349c-0.326-3.564-0.586-7.17-0.781-10.812l-0.229-5.351c-0.108-3.246-0.155-6.524-0.146-9.834l0.073-5.348
		c0.057-2.469,0.137-4.949,0.267-7.454c0.697-13.56,2.463-27.619,5.557-42.182c5.46-25.701,14.685-40.827,24.585-49.571
		c-4.691-0.937-27.077,1.135-45.286,22.492c-6.603,7.742-12.658,18.013-17.119,31.604c-3.91,11.913-6.167,24.531-6.963,37.658"/>
	<path fill="#F4F2EB" d="M284.601,106.332c-0.795-13.127-3.054-25.745-6.964-37.658c-4.461-13.591-10.516-23.862-17.117-31.604
		c-18.211-21.356-40.594-23.429-45.286-22.492c9.899,8.744,19.124,23.871,24.583,49.571c3.096,14.563,4.859,28.622,5.559,42.182
		c1.444,28.057-1.678,53.977-7.037,77.811c-5.865,26.087-14.414,49.671-22.588,70.806c-1.528,3.95-3.071,8.059-4.613,12.276
		c-17.891,48.883-35.957,112.154-35.957,112.154s-0.559,0.613-1.415,1.344c0.899,4.422,3.521,3.802,5.435,2.641
		c1.23-0.749,2.17-1.72,2.17-1.72s22.986-47.455,58.902-114.419c0.309-0.574,0.613-1.145,0.923-1.721
		c14.406-26.833,26.017-54.373,33.647-81.362C282.444,157.242,286.09,130.892,284.601,106.332z"/>
	<path fill="#F4F2EB" d="M150.987,377.117c-2.954-39.212-11.369-73.828-19.678-109.893c-6.027-26.162-11.994-53.09-15.789-83.083
		c-2.99-23.651-4.624-49.21-3.861-77.811c0.039-1.485,0.08-2.973,0.134-4.474c2.25-64.167,18.204-88.397,32.246-97.166
		c-6.113-1.578-24.31-4.565-40.668,9.887c-9.9,8.744-19.125,23.871-24.585,49.571c-3.094,14.563-4.86,28.622-5.557,42.182
		c-1.445,28.057,1.677,53.977,7.037,77.811c5.865,26.087,14.414,49.671,22.59,70.806c1.526,3.95,3.069,8.06,4.613,12.276
		c17.889,48.883,35.955,112.153,35.955,112.153s0.557,0.613,1.415,1.345c2.199,1.876,6.376,4.548,8.217-0.226
		C151.763,378.919,150.987,377.117,150.987,377.117z"/>
	<path fill="#F4F2EB" d="M245.374,106.332c-0.697-13.56-2.463-27.619-5.558-42.182c-5.459-25.701-14.685-40.827-24.583-49.571
		c-16.359-14.452-34.557-11.465-40.668-9.887c14.04,8.769,29.994,32.999,32.245,97.166c0.053,1.501,0.094,2.989,0.133,4.474
		c0.763,28.601-0.872,54.159-3.862,77.811c-3.793,29.992-9.759,56.921-15.787,83.083c-8.309,36.062-16.725,70.68-19.681,109.893
		c0,0-0.774,1.803-2.067,3.381c1.844,4.773,6.019,2.102,8.217,0.226c0.855-0.729,1.414-1.345,1.414-1.345
		s18.068-63.271,35.957-112.153c1.543-4.216,3.086-8.326,4.615-12.276c8.174-21.135,16.721-44.719,22.586-70.806
		C243.696,160.308,246.819,134.389,245.374,106.332z"/>
	<path fill="#F4F2EB" d="M206.943,106.332c-0.04-1.485-0.08-2.973-0.133-4.474c-2.251-64.167-18.205-88.397-32.245-97.166
		c-2.958-1.849-5.83-3.011-8.473-3.716c0.008-0.058,0.015-0.118,0.025-0.174c0,0-2.668-0.877-6.819-0.796
		c-4.146-0.081-6.812,0.796-6.812,0.796c0.007,0.056,0.016,0.117,0.024,0.174c-2.644,0.705-5.514,1.867-8.472,3.716
		c-14.042,8.769-29.995,32.999-32.246,97.166c-0.054,1.501-0.095,2.989-0.134,4.474c-0.763,28.601,0.871,54.159,3.861,77.811
		c3.794,29.992,9.762,56.921,15.789,83.083c8.31,36.062,16.724,70.68,19.678,109.893c0,0,0.776,1.803,2.068,3.381
		c1.509,1.84,3.726,3.375,6.247,1.381c2.521,1.994,4.736,0.459,6.244-1.381c1.293-1.578,2.068-3.381,2.068-3.381
		c2.956-39.211,11.372-73.828,19.68-109.893c6.028-26.162,11.996-53.09,15.787-83.083
		C206.071,160.491,207.706,134.932,206.943,106.332z"/>
	<g>
		<path opacity="0.1" fill="#999999" enable-background="new    " d="M298.336,76.481c0,0,30.943,104.826-79.08,174.961
			c-110.021,70.136-204.917-39.968-204.917-39.968s6.878,30.917,37.135,64.102c30.253,33.182,76.328,101.053,79.077,111.612
			c0,0,34.382-11.312,55.012,0c0,0,37.133-65.612,74.264-108.597C296.958,235.606,343.032,165.47,298.336,76.481z"/>
	</g>
	<g>
		<g>
			<path fill="#BFBFBF" d="M142.361,429.099c-0.355,0-0.649-0.285-0.656-0.643c-0.414-21.691-2.677-33.822-2.7-33.94
				c-0.066-0.358,0.167-0.702,0.523-0.769c0.359-0.064,0.7,0.166,0.77,0.522c0.022,0.122,2.303,12.349,2.721,34.159
				c0.007,0.363-0.281,0.664-0.645,0.67C142.369,429.099,142.366,429.099,142.361,429.099z"/>
			<path fill="#BFBFBF" d="M149.512,428.345c-0.013,0-0.025,0-0.037-0.002c-0.362-0.018-0.64-0.328-0.621-0.689
				c0.795-14.346-0.673-33.754-0.873-34.904c-0.085-0.322,0.087-0.662,0.405-0.779c0.341-0.127,0.719,0.044,0.845,0.383
				c0.196,0.525,1.745,20.748,0.935,35.373C150.148,428.076,149.859,428.345,149.512,428.345z"/>
			<path fill="#BFBFBF" d="M157.764,427.31c-0.364,0-0.657-0.295-0.657-0.658l-0.011-34.643c0-0.363,0.294-0.655,0.656-0.655l0,0
				c0.364,0,0.657,0.292,0.657,0.655l0.011,34.643C158.42,427.013,158.126,427.31,157.764,427.31L157.764,427.31z"/>
			<path fill="#BFBFBF" d="M165.807,427.39c-0.325,0-0.607-0.24-0.65-0.572c-1.717-13.406,0.957-34.266,1.326-34.869
				c0.191-0.309,0.596-0.406,0.904-0.217c0.277,0.17,0.383,0.514,0.265,0.803c-0.368,1.397-2.856,21.129-1.192,34.115
				c0.047,0.359-0.207,0.689-0.565,0.734C165.863,427.388,165.834,427.39,165.807,427.39z"/>
			<path fill="#BFBFBF" d="M173.225,427.246c-0.34,0-0.628-0.264-0.654-0.611c-1.503-21.318,1.109-34.118,1.137-34.245
				c0.074-0.354,0.418-0.587,0.778-0.509c0.353,0.072,0.582,0.422,0.509,0.777c-0.029,0.125-2.602,12.766-1.111,33.885
				c0.025,0.361-0.247,0.674-0.61,0.699C173.256,427.246,173.241,427.246,173.225,427.246z"/>
		</g>
		<path fill="#848484" d="M129.029,384.582c0,0,28.077-12.381,59.751-0.305c0,0-5.759,8.715-7.559,16.662
			c0,0-25.916-4.127-44.812,1.529C136.409,402.468,135.328,393.755,129.029,384.582z"/>
		<path fill="#848484" d="M140.042,426.208c0,0,19.598-7.334,36.9-0.562c0,0,3.109,3.383-0.54,6.768c0,0-19.06-5.451-36.093,1.504
			C140.309,433.917,136.794,430.156,140.042,426.208z"/>
	</g>
</g>
</svg>
