<?xml version="1.0" encoding="utf-8"?>
<!-- Generator: Adobe Illustrator 16.0.0, SVG Export Plug-In . SVG Version: 6.00 Build 0)  -->
<!DOCTYPE svg PUBLIC "-//W3C//DTD SVG 1.1//EN" "http://www.w3.org/Graphics/SVG/1.1/DTD/svg11.dtd">
<svg version="1.1" id="Layer_1" xmlns="http://www.w3.org/2000/svg" xmlns:xlink="http://www.w3.org/1999/xlink" x="0px" y="0px"
	 width="1008.791px" height="612.662px" viewBox="0 -140.384 1008.791 612.662"
	 enable-background="new 0 -140.384 1008.791 612.662" xml:space="preserve">
<g id="_x38_00x800">
	<rect y="246.065" fill="#70C185" width="106.312" height="46.555"/>
	<rect y="226.953" fill="#70C185" width="22.651" height="65.667"/>
	<rect x="168.646" y="259.335" fill="#70C185" width="68.667" height="33.285"/>
	<rect x="786.316" y="249.659" fill="#70C185" width="89.667" height="42.961"/>
	<rect x="850.98" y="234.333" fill="#70C185" width="157.811" height="58.287"/>
	<rect x="979.98" y="226.639" fill="#70C185" width="28.811" height="35.36"/>
	<rect x="671.646" y="271.615" fill="#70C185" width="101" height="21.005"/>
	<rect x="731.574" y="275.998" fill="#70C185" width="79.07" height="16.622"/>
	<rect x="212.646" y="282.665" fill="#70C185" width="467.667" height="9.955"/>
</g>
<rect y="261.284" fill="#70C185" width="1008.791" height="210.994"/>
<g id="_x31_366x768">
	<g>
		<g>
			<g>
				<g>
					<polygon fill="#5FB776" points="731.574,205.453 649.967,205.944 568.367,206.441 608.741,135.523 619.457,116.698 
						634.941,111.076 640.854,142.686 656.318,111.076 671.774,124.27 669.046,108.806 676.583,111.528 690.341,135.032 					"/>
					<polygon fill="#57A369" points="737.49,205.497 676.327,205.786 658.917,113.875 671.775,124.27 669.044,108.808 
						678.173,111.086 					"/>
					<polygon fill="#EFEFEF" points="669.044,108.808 671.775,124.27 658.917,113.875 649.114,64.604 678.173,111.086 					"/>
					<polygon fill="#FFFFFF" points="658.917,113.875 640.854,142.682 634.941,111.078 619.456,116.697 649.114,64.604 					"/>
				</g>
				<g>
					<polygon fill="#6FD18B" points="540.56,209.567 420.056,210.292 299.561,211.026 359.179,106.305 375.002,78.507 
						397.866,70.206 406.6,116.881 429.434,70.206 452.257,89.687 448.228,66.853 459.356,70.872 479.673,105.58 					"/>
					<polygon fill="#6FC184" points="545.82,204.775 459.356,205.445 433.271,74.338 452.258,89.687 448.224,66.854 461.704,70.219 
											"/>
					<polygon fill="#EFEFEF" points="448.224,66.854 452.258,89.687 433.271,74.338 418.796,1.583 461.704,70.219 					"/>
					<polygon fill="#FFFFFF" points="433.271,74.338 406.596,116.875 397.868,70.207 375.002,78.504 418.796,1.583 					"/>
				</g>
				<g>
					<polygon fill="#6FD18B" points="625.645,208.425 541.316,208.933 456.996,209.446 498.715,136.163 509.789,116.711 
						525.789,110.901 531.9,143.564 547.879,110.901 563.85,124.534 561.03,108.555 568.819,111.368 583.036,135.656 					"/>
					<polygon fill="#6FC184" points="629.326,205.071 568.819,205.54 550.564,113.793 563.852,124.534 561.028,108.557 
						570.462,110.911 					"/>
					<polygon fill="#EFEFEF" points="561.028,108.557 563.852,124.534 550.564,113.793 540.435,62.88 570.462,110.911 					"/>
					<polygon fill="#FFFFFF" points="550.564,113.793 531.896,143.561 525.791,110.902 509.788,116.709 540.435,62.88 					"/>
				</g>
				<g>
					<polygon fill="#5FB776" points="380.391,205.017 224.459,206.221 68.539,207.441 145.684,33.53 166.158,-12.635 
						195.747,-26.421 207.046,51.094 236.592,-26.421 266.126,5.931 260.912,-31.99 275.314,-25.315 301.604,32.324 					"/>
					<polygon fill="#57A369" points="391.693,205.126 274.826,205.834 241.559,-19.559 266.127,5.931 260.906,-31.987 
						278.352,-26.398 					"/>
					<polygon fill="#EFEFEF" points="260.906,-31.987 266.127,5.931 241.559,-19.559 222.827,-140.384 278.352,-26.398 					"/>
					<polygon fill="#FFFFFF" points="241.559,-19.559 207.042,51.085 195.749,-26.417 166.158,-12.639 222.827,-140.384 					"/>
				</g>
			</g>
			<path fill="#70C185" d="M1007.957,226.638c0,11.721-9.502,21.221-21.221,21.221H21.221C9.5,247.858,0,238.358,0,226.638l0,0
				c0-11.72,9.5-21.22,21.221-21.22h965.516C998.455,205.419,1007.957,214.919,1007.957,226.638L1007.957,226.638z"/>
			<path fill="#70C185" d="M917.052,244.263c0,10.264-8.321,18.586-18.588,18.586l-784.289,4c-10.265,0-18.586-8.322-18.586-18.586
				l0,0c0-10.267,8.321-18.587,18.586-18.587l784.289-4C908.729,225.677,917.052,233.997,917.052,244.263L917.052,244.263z"/>
			<path fill="#70C185" d="M826.949,271.614c0,8.258-6.695,14.951-14.951,14.951H237.43c-8.258,0-14.951-6.693-14.951-14.951l0,0
				c0-8.256,6.693-14.949,14.951-14.949h574.568C820.254,256.665,826.949,263.358,826.949,271.614L826.949,271.614z"/>
			<g>
				<rect x="385.754" y="246.381" fill="#6E3F37" width="12.091" height="26.358"/>
				<path fill="#D3D667" d="M420.227,227.767c0,19.101-12.765,24.56-28.526,24.56s-28.541-6.072-28.541-25.173
					c0-19.102,12.778-44,28.541-44S420.227,208.667,420.227,227.767z"/>
			</g>
			<g>
				<g>
					<path fill="#AFAFAF" d="M751.652,222.942"/>
				</g>
			</g>
			<g>
				<rect x="737.7" y="229.46" fill="#6E3F37" width="12.092" height="26.359"/>
				<path fill="#D3D667" d="M772.175,210.846c0,19.1-12.766,24.559-28.526,24.559c-15.765,0-28.541-6.072-28.541-25.172
					c0-19.102,12.776-44,28.541-44C759.409,166.233,772.175,191.745,772.175,210.846z"/>
			</g>
			<g>
				<rect x="321.178" y="229.357" fill="#6E3F37" width="13.957" height="30.43"/>
				<ellipse fill="#D3D667" cx="328.042" cy="170.674" rx="32.946" ry="65.549"/>
			</g>
			<g>
				<path fill="#AFD6E0" d="M289.157,255.882h-40.551c0.061-0.454,0.102-0.913,0.102-1.383c0-5.828-4.725-10.553-10.551-10.553
					H56.87c-5.828,0-10.552,4.725-10.552,10.553c0,5.826,4.724,10.551,10.552,10.551h40.549c-0.059,0.454-0.101,0.914-0.101,1.386
					c0,5.825,4.724,10.551,10.552,10.551h181.287c5.826,0,10.551-4.726,10.551-10.551
					C299.708,260.606,294.983,255.882,289.157,255.882z"/>
				<path fill="#4EA8B7" d="M97.336,263.775c0,0.431,0.03,0.859,0.08,1.28H56.888c-5.021,0-9.211-3.49-10.28-8.181
					c1.79,3.279,5.271,5.521,9.28,5.521h41.549C97.377,262.846,97.336,263.306,97.336,263.775z"/>
				<path fill="#4EA8B7" d="M299.712,266.436c0,5.819-4.72,10.55-10.55,10.55h-181.29c-5.021,0-9.21-3.5-10.28-8.189
					c1.79,3.29,5.271,5.521,9.28,5.521h181.29c5.83,0,10.55-4.72,10.55-10.55c0-0.811-0.09-1.609-0.271-2.37
					C299.252,262.896,299.712,264.616,299.712,266.436z"/>
			</g>
		</g>
	</g>
</g>
<g>
	<rect x="804.706" y="254.814" fill="#6E3F37" width="12.09" height="26.358"/>
	<path fill="#D3D667" d="M839.179,236.201c0,19.101-12.766,24.56-28.527,24.56s-28.541-6.072-28.541-25.173
		c0-19.102,12.779-44,28.541-44C826.415,191.588,839.179,217.1,839.179,236.201z"/>
</g>
<g>
	<rect x="902.065" y="232.788" fill="#6E3F37" width="13.957" height="30.43"/>
	<ellipse fill="#D3D667" cx="908.93" cy="174.105" rx="32.946" ry="65.549"/>
</g>
</svg>
