<?xml version="1.0" encoding="utf-8"?>
<!-- Generator: Adobe Illustrator 16.0.0, SVG Export Plug-In . SVG Version: 6.00 Build 0)  -->
<!DOCTYPE svg PUBLIC "-//W3C//DTD SVG 1.1//EN" "http://www.w3.org/Graphics/SVG/1.1/DTD/svg11.dtd">
<svg version="1.1" id="Layer_1" xmlns="http://www.w3.org/2000/svg" xmlns:xlink="http://www.w3.org/1999/xlink" x="0px" y="0px"
	 width="300px" viewBox="0 0 164.161 131.833" enable-background="new 0 0 164.161 131.833"
	 xml:space="preserve">
<g>
	
		<ellipse transform="matrix(0.9951 0.0986 -0.0986 0.9951 10.0689 -5.6372)" fill="#FFFFFF" cx="62.074" cy="99.062" rx="1.322" ry="1.316"/>
	
		<ellipse transform="matrix(0.9951 0.0987 -0.0987 0.9951 6.3841 -9.5655)" fill="#FFFFFF" cx="99.835" cy="59.718" rx="1.323" ry="1.317"/>
	<path fill="#FFFFFF" d="M116.903,99.83c-0.17,1.785-1.689,3.088-3.399,2.91s-2.959-1.77-2.789-3.555
		c0.168-1.785,1.69-3.09,3.4-2.91C115.824,96.453,117.072,98.042,116.903,99.83z"/>
	<path fill="#B0B1B1" d="M108.313,52.821L83.367,35.703c1.396-2.033,8.112,0.151,14.999,4.877
		C105.255,45.309,109.707,50.788,108.313,52.821z"/>
	
		<ellipse transform="matrix(0.8245 0.5658 -0.5658 0.8245 41.8607 -46.4612)" fill="#F3F3F3" cx="95.84" cy="44.262" rx="15.128" ry="4.465"/>
	<path fill="#FFFFFF" d="M118.033,38.616L118.033,38.616c0.252-0.569,0.144-1.347-0.276-2.268c-0.305-0.667-0.771-1.412-1.379-2.205
		c-0.411-0.535-0.886-1.092-1.419-1.664c-0.651-0.699-1.39-1.419-2.203-2.148c-1.396-1.248-3.013-2.519-4.788-3.739
		c-6.658-4.568-13.152-6.761-14.84-5.068l-0.02-0.014l-9.741,14.193c1.396-2.033,8.112,0.151,14.999,4.877
		c1.778,1.221,3.395,2.491,4.788,3.739c0.815,0.728,1.553,1.45,2.204,2.149c0.534,0.571,1.008,1.129,1.42,1.665
		c0.607,0.792,1.074,1.537,1.379,2.205c0.476,1.043,0.553,1.903,0.156,2.484l9.596-13.987c0.001-0.001,0.002-0.002,0.003-0.002
		c0.002-0.002,0.003-0.005,0.004-0.007l0.136-0.196L118.033,38.616z"/>
	<polygon fill="#2AAAE2" points="57.939,67.414 0,24.389 16.219,0 76.302,39.796 	"/>
	<path fill="#FFFFFF" d="M105.846,49.492c-1.066-1.59-2.951-3.527-5.375-5.477c-0.912-0.736-1.904-1.475-2.954-2.195
		c-6.188-4.248-12.148-6.321-13.31-4.631L57.229,76.503l22.415,15.384l26.979-39.314C107.064,51.929,106.749,50.834,105.846,49.492z
		"/>
	
		<ellipse transform="matrix(0.8245 0.5658 -0.5658 0.8245 60.0969 -23.3834)" fill="#F3F3F3" cx="67.747" cy="85.196" rx="15.126" ry="3.712"/>
	
		<ellipse transform="matrix(0.8245 0.5658 -0.5658 0.8245 60.7728 -22.0349)" fill="#FFFFFF" cx="65.914" cy="86.967" rx="18.09" ry="4.441"/>
	<path fill="#F3F3F3" d="M116.378,34.143l-9.6,13.99c-0.412-0.536-0.886-1.094-1.42-1.665l9.601-13.989
		C115.492,33.051,115.967,33.608,116.378,34.143z"/>
	<path fill="#F3F3F3" d="M105.054,47.951L77.546,89.369c-0.413-0.535-0.887-1.094-1.42-1.664l27.508-41.418
		C104.167,46.859,104.642,47.416,105.054,47.951z"/>
	<path fill="#F3F3F3" d="M69.257,91.355c0.088-0.191,0.062-0.445-0.062-0.743c-0.09-0.217-0.231-0.456-0.417-0.711
		c-0.127-0.172-0.271-0.351-0.438-0.532c-0.2-0.223-0.429-0.453-0.685-0.684c-0.433-0.396-0.937-0.797-1.493-1.178
		c-2.084-1.432-4.143-2.08-4.704-1.503l0,0L61.353,86l-0.145,0.065c0,0.001,0-0.482,0-0.482H61.19l-3.13,4.958
		c0.471-0.685,2.654,0.08,4.812,1.561c0.557,0.383,1.087,0.843,1.521,1.237c0.254,0.232,0.495,0.492,0.695,0.715
		c0.165,0.183,0.318,0.376,0.444,0.549c0.187,0.254,0.33,0.5,0.421,0.717c0.141,0.34,0.158,0.703,0.023,0.898l3.237-4.635l0,0
		c0,0,0.001,0,0.002,0l0.047-0.146L69.257,91.355z"/>
	<path fill="#FFFFFF" d="M63.041,92.053c-12.426-8.527-29.412-5.366-37.94,7.06l45,30.882
		C78.629,117.568,75.47,100.582,63.041,92.053z"/>
	<path fill="#F3F3F3" d="M68.148,128.656l-3.488-2.394c8.078-11.769,6.635-26.966-2.969-35.011c0.614,0.338,1.215,0.708,1.803,1.112
		C74.592,99.98,76.678,116.228,68.148,128.656z"/>
	<path fill="#F3F3F3" d="M70.418,130.212c-1.373,2.001-12.443-3.2-24.816-11.646c-0.118-0.08-0.236-0.161-0.354-0.243
		c-0.47-0.322-0.937-0.645-1.397-0.968c-11.779-8.257-20.084-16.298-18.749-18.243c1.336-1.946,11.825,2.91,23.765,10.933
		c0.468,0.314,0.937,0.633,1.406,0.956c0.118,0.08,0.237,0.162,0.354,0.243C62.956,119.752,71.793,128.208,70.418,130.212z"/>
	<path fill="#E6E6E5" d="M70.104,130.669c-1.373,2.002-12.443-3.199-24.815-11.646c-0.119-0.08-0.236-0.161-0.355-0.242
		c-0.471-0.322-0.936-0.647-1.397-0.969c-11.78-8.257-20.084-16.298-18.749-18.243c1.335-1.947,11.824,2.91,23.765,10.934
		c0.468,0.313,0.937,0.632,1.406,0.954c0.118,0.081,0.237,0.163,0.354,0.245C62.643,120.208,71.479,128.666,70.104,130.669z"/>
	<path fill="#FFFFFF" d="M50.626,111.245l-5.65,8.236l-1.757-1.205l5.647-8.23c0.468,0.314,0.937,0.633,1.406,0.956
		C50.391,111.082,50.51,111.164,50.626,111.245z"/>
	<circle fill="#FFFFFF" cx="43.865" cy="119.217" r="2.861"/>
	
		<rect x="69.754" y="50.515" transform="matrix(-0.8245 -0.5658 0.5658 -0.8245 97.1046 141.6714)" fill="#FFFFFF" width="1.533" height="10.526"/>
	<polygon fill="#2AAAE2" points="88.535,87.38 144.11,131.833 164.161,99.251 106.291,60.226 	"/>
	<polygon opacity="0.5" fill="#0C89BD" points="88.535,87.38 144.11,131.833 158.391,108.628 96.509,75.185 	"/>
	<polygon opacity="0.5" fill="#0C89BD" points="0,24.389 57.939,67.414 69.669,49.771 5.35,16.339 	"/>
	
		<rect x="93.433" y="66.766" transform="matrix(0.8246 0.5657 -0.5657 0.8246 57.2638 -40.6543)" fill="#FFFFFF" width="1.535" height="10.527"/>
</g>
</svg>
