<?xml version="1.0" encoding="utf-8"?>
<!-- Generator: Adobe Illustrator 16.0.0, SVG Export Plug-In . SVG Version: 6.00 Build 0)  -->
<!DOCTYPE svg PUBLIC "-//W3C//DTD SVG 1.1//EN" "http://www.w3.org/Graphics/SVG/1.1/DTD/svg11.dtd">
<svg version="1.1" id="Layer_1" xmlns="http://www.w3.org/2000/svg" xmlns:xlink="http://www.w3.org/1999/xlink" x="0px" y="0px"
	 width="370.71px" height="578.328px" viewBox="0 0 370.71 578.328" enable-background="new 0 0 370.71 578.328"
	 xml:space="preserve">
<g>
	<rect x="175.369" y="11.803" fill="#B4B4B4" width="7.822" height="327.527"/>
	<polygon fill="#F3F3F3" points="181.314,335.148 179.279,317.821 179.279,11.803 181.314,11.803 	"/>
	<circle fill="#CECECD" cx="179.28" cy="7.382" r="7.383"/>
	<circle fill="#D9D9D8" cx="182.247" cy="4.436" r="1.731"/>
</g>
<g>
	<path fill="#171E4D" d="M291.587,82.477c-16.015,4-92.485,8.331-108.501,0c0-12.057,0-55.124,0-67.181
		c16.016,8.331,92.486,4.001,108.501,0C291.587,27.354,291.587,70.42,291.587,82.477z"/>
</g>
<g>
	<path fill="#CFD0D1" d="M370.711,392.971c0,102.368-82.986,185.356-185.359,185.356C82.988,578.328,0,495.339,0,392.971
		c0-102.37,82.988-185.358,185.352-185.358C287.725,207.613,370.711,290.601,370.711,392.971z"/>
	<g>
		<path fill="#DEDEDD" d="M253.281,327.337c0,0-13.002,26.72,15.788,41.954c29.233,15.464,40.313-5.565,43.522-11.603"/>
		<path fill="#DEDEDD" d="M219.571,254.65c0,0-6.144,27.886,25.46,33.99c32.088,6.203,38.047-15.749,39.34-22.386"/>
		<path fill="#808080" d="M312.109,358.678c-5.864,11.036-23.807,12.969-40.057,4.317c-16.238-8.651-24.661-24.617-18.771-35.658
			c5.881-11.04,23.82-12.976,40.061-4.321C309.59,331.669,317.998,347.634,312.109,358.678z"/>
		<path fill="#9E9E9E" d="M309.807,359.946c-5.301,9.962-21.982,11.445-37.244,3.312c-15.274-8.133-23.352-22.805-18.062-32.766
			c5.319-9.954,22-11.439,37.26-3.312C307.041,335.317,315.111,349.988,309.807,359.946z"/>
		<path fill="#CFD0D1" d="M295.881,355.964c-2.241,4.205-9.281,4.828-15.733,1.395c-6.458-3.435-9.868-9.629-7.625-13.839
			c2.235-4.208,9.28-4.841,15.733-1.399C294.711,345.554,298.123,351.757,295.881,355.964z"/>
		<path fill="#DEDEDD" d="M110.949,340.514c0,0,4.309,45.325,47.929,42.858c44.286-2.512,41.701-39.783,41.22-49.167"/>
		<path fill="#808080" d="M200.228,335.704c0.877,17.167-18.386,32.169-43.051,33.491c-24.652,1.328-45.345-11.508-46.228-28.681
			c-0.882-17.17,18.396-32.166,43.039-33.498C178.652,305.687,199.345,318.524,200.228,335.704z"/>
		<path fill="#9E9E9E" d="M193.239,338.832c0.802,15.492-15.336,28.955-36.03,30.078c-20.687,1.113-38.106-10.535-38.911-26.026
			c-0.792-15.492,15.333-28.954,36.03-30.072C175.016,311.691,192.441,323.342,193.239,338.832z"/>
		<path fill="#CFD0D1" d="M179.697,344.019c0.337,6.543-7.324,12.275-17.122,12.805c-9.792,0.529-17.994-4.351-18.328-10.896
			c-0.332-6.55,7.336-12.28,17.115-12.807C171.156,332.59,179.359,337.465,179.697,344.019z"/>
		<path fill="#DEDEDD" d="M30.308,358.147c0,0,20.796,17.558,40.242-4.04c17.169-19.083-1.296-30.257-5.497-34.275"/>
		<path fill="#808080" d="M65.734,320.447c7.686,7.365,5.986,21.771-3.803,32.183c-9.786,10.412-23.951,12.881-31.624,5.517
			c-7.687-7.361-5.981-21.779,3.801-32.186C43.905,315.55,58.07,313.083,65.734,320.447z"/>
		<path fill="#9E9E9E" d="M61.63,327.178c6.924,6.646,5.888,19.118-2.323,27.856c-8.214,8.74-20.492,10.443-27.426,3.799
			c-6.929-6.648-5.891-19.121,2.316-27.854C42.422,322.243,54.693,320.538,61.63,327.178z"/>
		<path fill="#DEDEDD" d="M60.685,425.545c0,0-1.216,4.021-4.185,6.683c0,0,0.47,16.34,21.043,20.243
			c20.875,3.954,26.476-12.125,26.476-12.125s-2.102-2.731-1.156-7.452"/>
		<path fill="#808080" d="M106.885,434.058c-2.106,10.428-15.195,16.697-29.227,13.99c-14.027-2.702-23.692-13.352-21.571-23.781
			c2.116-10.428,15.205-16.691,29.23-13.99C99.344,412.976,109.002,423.63,106.885,434.058z"/>
		<path fill="#9E9E9E" d="M98.996,434.179c-1.904,9.411-12.994,15.199-24.772,12.936c-11.776-2.271-19.782-11.738-17.877-21.146
			c1.908-9.412,13.008-15.196,24.78-12.936C92.9,415.306,100.9,424.767,98.996,434.179z"/>
		<path fill="#DEDEDD" d="M193.613,517.713c0,0,0.015,5.531-2.538,9.675c0,0,8.846,17.12,37.261,12.972
			c28.843-4.195,28.318-24.149,28.318-24.149s-4.021-2.133-5.072-7.71"/>
		<path fill="#808080" d="M258.608,507.326c2.37,12.745-11.994,25.414-32.081,28.29c-20.097,2.875-38.301-5.125-40.676-17.874
			c-2.375-12.745,11.986-25.411,32.071-28.283C238.02,486.583,256.228,494.585,258.608,507.326z"/>
		<path fill="#9E9E9E" d="M248.124,510.811c2.148,11.502-9.789,22.782-26.653,25.206c-16.875,2.413-32.276-4.948-34.415-16.445
			c-2.143-11.512,9.788-22.791,26.642-25.204C230.577,491.953,245.979,499.314,248.124,510.811z"/>
		<path fill="#808080" d="M249.246,424.265c2.051,7.766-3.677,16.689-12.789,19.922c-9.098,3.252-18.141-0.428-20.198-8.199
			c-2.047-7.768,3.673-16.688,12.791-19.93C238.157,412.82,247.206,416.493,249.246,424.265z"/>
		<path fill="#9E9E9E" d="M244.628,427.187c1.854,7.008-2.844,14.896-10.479,17.621c-7.65,2.714-15.348-0.756-17.193-7.768
			c-1.85-7.008,2.85-14.896,10.496-17.618C235.104,416.708,242.792,420.179,244.628,427.187z"/>
		<path fill="#808080" d="M330.482,435.972c2.055,7.769-3.678,16.693-12.775,19.938c-9.109,3.234-18.165-0.44-20.202-8.205
			c-2.041-7.773,3.671-16.691,12.776-19.935C319.396,424.533,328.432,428.206,330.482,435.972z"/>
		<path fill="#9E9E9E" d="M325.879,438.898c1.85,7.014-2.842,14.901-10.488,17.621c-7.662,2.716-15.343-0.755-17.205-7.77
			c-1.84-7.008,2.855-14.893,10.506-17.611C316.336,428.414,324.035,431.893,325.879,438.898z"/>
		<path fill="#808080" d="M284.154,268.816c-3.487,12.009-20.656,17.582-38.337,12.446c-17.663-5.147-29.172-19.042-25.683-31.06
			c3.497-12.01,20.657-17.583,38.327-12.442C276.142,242.9,287.633,256.805,284.154,268.816z"/>
		<path fill="#9E9E9E" d="M282.152,270.531c-3.142,10.838-19.166,15.708-35.79,10.877c-16.609-4.829-27.525-17.536-24.366-28.364
			c3.14-10.84,19.171-15.708,35.779-10.877C274.395,246.995,285.307,259.695,282.152,270.531z"/>
		<path fill="#CFD0D1" d="M230.798,436.453c0.068,1.308-1.469,2.456-3.429,2.564c-1.966,0.105-3.614-0.874-3.671-2.188
			c-0.073-1.311,1.465-2.46,3.427-2.562C229.082,434.162,230.729,435.142,230.798,436.453z"/>
		<path fill="#808080" d="M134.761,503.283c2.047,7.776-3.678,16.696-12.786,19.931c-9.105,3.242-18.153-0.434-20.191-8.201
			c-2.054-7.763,3.672-16.687,12.777-19.925C123.677,491.847,132.717,495.516,134.761,503.283z"/>
		<path fill="#9E9E9E" d="M130.151,506.208c1.842,7.016-2.85,14.9-10.488,17.62c-7.646,2.72-15.348-0.761-17.188-7.766
			c-1.855-7.011,2.855-14.893,10.496-17.62C120.612,495.731,128.307,499.201,130.151,506.208z"/>
		<path fill="#CFD0D1" d="M116.312,515.477c0.071,1.31-1.474,2.458-3.433,2.561c-1.954,0.105-3.611-0.866-3.67-2.178
			c-0.062-1.312,1.464-2.461,3.43-2.569C114.599,513.187,116.244,514.165,116.312,515.477z"/>
		<path fill="#808080" d="M165.417,457.751c1.013,3.84-1.82,8.266-6.34,9.868c-4.516,1.604-8.993-0.214-10.006-4.06
			c-1.009-3.848,1.81-8.276,6.337-9.879C159.924,452.076,164.402,453.893,165.417,457.751z"/>
		<path fill="#9E9E9E" d="M163.125,459.19c0.923,3.482-1.404,7.384-5.185,8.734c-3.8,1.347-7.608-0.369-8.524-3.847
			c-0.915-3.479,1.417-7.378,5.208-8.736C158.403,454.001,162.219,455.718,163.125,459.19z"/>
		<path fill="#CFD0D1" d="M156.271,463.785c0.027,0.649-0.727,1.217-1.694,1.27c-0.977,0.056-1.794-0.425-1.823-1.08
			c-0.042-0.646,0.73-1.222,1.7-1.275C155.431,462.65,156.235,463.135,156.271,463.785z"/>
		<path fill="#CFD0D1" d="M220.646,520.718c0.146,2.883-3.037,5.399-7.115,5.621c-4.078,0.22-7.512-1.936-7.664-4.829
			c-0.152-2.884,3.047-5.402,7.125-5.627C217.063,515.665,220.509,517.827,220.646,520.718z"/>
		<path fill="#CFD0D1" d="M71.005,440.015c-2.361,1.676-6.189,0.331-8.558-3.001c-2.37-3.332-2.385-7.387-0.02-9.053
			c2.362-1.671,6.2-0.327,8.561,3.002C73.355,434.292,73.369,438.351,71.005,440.015z"/>
		<path fill="#CFD0D1" d="M312.551,450.001c0.07,1.513-1.602,2.83-3.746,2.951c-2.137,0.114-3.951-1.023-4.026-2.534
			c-0.075-1.519,1.597-2.844,3.744-2.952C310.66,447.347,312.471,448.476,312.551,450.001z"/>
		<path fill="#CFD0D1" d="M46.741,356.65c0.09,1.518-1.59,2.844-3.735,2.957c-2.148,0.113-3.941-1.018-4.019-2.535
			c-0.079-1.519,1.599-2.838,3.743-2.957C44.868,354,46.676,355.129,46.741,356.65z"/>
		<path fill="#CFD0D1" d="M253.541,274.236c0.073,1.514-1.602,2.837-3.74,2.958c-2.152,0.108-3.95-1.022-4.021-2.54
			c-0.071-1.517,1.591-2.834,3.747-2.957C251.67,271.578,253.465,272.714,253.541,274.236z"/>
		<path fill="#CFD0D1" d="M128.193,254.44c0.079,1.516-1.604,2.836-3.746,2.953c-2.141,0.119-3.945-1.02-4.021-2.543
			c-0.078-1.511,1.599-2.831,3.741-2.949C126.316,251.79,128.113,252.919,128.193,254.44z"/>
	</g>
</g>
<path fill="#FFFFFF" d="M204.123,51.529c-0.602,0-1.826-0.935-2.873-0.935c-0.58,0-1.091,0.267-1.091,0.89
	c0,1.492,5.566,1.269,5.566,4.92c0,2.138-1.804,3.764-4.565,3.764c-1.803,0-4.475-1.024-4.475-2.472c0-0.49,0.489-1.425,1.38-1.425
	c1.247,0,1.804,1.092,3.318,1.092c0.98,0,1.269-0.312,1.269-0.914c0-1.47-5.567-1.247-5.567-4.92c0-2.228,1.804-3.742,4.342-3.742
	c1.581,0,4.008,0.735,4.008,2.316C205.436,50.839,204.881,51.529,204.123,51.529z"/>
<path fill="#FFFFFF" d="M206.815,44.538c0-1.069,0.668-1.782,1.604-1.782c0.934,0,1.603,0.712,1.603,1.782v13.716
	c0,1.069-0.668,1.782-1.603,1.782c-0.935,0-1.604-0.713-1.604-1.782V44.538z"/>
<path fill="#FFFFFF" d="M215.165,44.872c0,1.001-0.802,1.847-1.804,1.847c-0.958,0-1.803-0.868-1.803-1.847
	c0-0.914,0.846-1.759,1.803-1.759C214.319,43.112,215.165,43.936,215.165,44.872z M211.758,49.703c0-1.068,0.668-1.781,1.603-1.781
	c0.936,0,1.604,0.713,1.604,1.781v8.55c0,1.069-0.667,1.782-1.604,1.782c-0.935,0-1.603-0.713-1.603-1.782V49.703z"/>
<path fill="#FFFFFF" d="M224.716,51.351c-0.802,0-1.514-0.624-2.538-0.624c-1.827,0-2.694,1.626-2.694,3.274
	c0,1.582,0.957,3.228,2.694,3.228c0.802,0,2.003-0.667,2.382-0.667c0.757,0,1.381,0.645,1.381,1.403
	c0,1.647-2.761,2.205-3.918,2.205c-3.453,0-5.745-2.828-5.745-6.168c0-3.251,2.361-6.213,5.745-6.213
	c1.269,0,3.918,0.468,3.918,2.027C225.941,50.483,225.474,51.351,224.716,51.351z"/>
<path fill="#FFFFFF" d="M229.636,55.047c0.222,1.582,1.537,2.316,3.029,2.316c1.647,0,2.782-1.292,3.629-1.292
	c0.69,0,1.314,0.69,1.314,1.38c0,1.381-2.851,2.717-5.233,2.717c-3.606,0-6.012-2.627-6.012-6.168c0-3.251,2.361-6.213,5.745-6.213
	c3.473,0,5.767,3.163,5.767,5.834c0,0.958-0.424,1.425-1.402,1.425H229.636z M234.668,52.909c-0.177-1.402-1.069-2.449-2.56-2.449
	c-1.426,0-2.383,1.091-2.54,2.449H234.668z"/>
<path fill="#FFFFFF" d="M242.85,45.917c-0.318,0.948-1.347,1.497-2.298,1.177c-0.908-0.305-1.434-1.396-1.122-2.326
	c0.291-0.865,1.361-1.397,2.269-1.093C242.608,43.98,243.148,45.03,242.85,45.917z"/>
<path fill="#A6A6A6" d="M241.179,49.414c0.34-1.014,1.201-1.477,2.086-1.179c0.887,0.298,1.294,1.186,0.955,2.199l-4.224,12.581
	c-0.34,1.014-1.201,1.476-2.087,1.179c-0.887-0.298-1.294-1.185-0.953-2.2L241.179,49.414z"/>
<path fill="#A6A6A6" d="M256.112,57.941c0,0.825,0,2.094-1.536,2.094c-0.935,0-1.314-0.513-1.536-1.359
	c-0.824,0.979-1.827,1.492-3.051,1.492c-3.006,0-5.299-2.561-5.299-6.168c0-3.518,2.359-6.213,5.299-6.213
	c1.181,0,2.338,0.468,3.051,1.47c0.088-0.779,0.756-1.335,1.536-1.335c1.536,0,1.536,1.269,1.536,2.093V57.941z M250.435,57.229
	c1.671,0,2.472-1.692,2.472-3.228c0-1.537-0.779-3.274-2.472-3.274c-1.759,0-2.538,1.737-2.538,3.274
	C247.896,55.537,248.698,57.229,250.435,57.229z"/>
<path fill="#A6A6A6" d="M265.908,51.351c-0.802,0-1.514-0.624-2.538-0.624c-1.826,0-2.694,1.626-2.694,3.274
	c0,1.582,0.957,3.228,2.694,3.228c0.801,0,2.004-0.667,2.383-0.667c0.756,0,1.38,0.645,1.38,1.403c0,1.647-2.762,2.205-3.919,2.205
	c-3.451,0-5.744-2.828-5.744-6.168c0-3.251,2.359-6.213,5.744-6.213c1.269,0,3.919,0.468,3.919,2.027
	C267.133,50.483,266.665,51.351,265.908,51.351z"/>
<path fill="#A6A6A6" d="M268.245,44.538c0-1.069,0.668-1.782,1.603-1.782c0.936,0,1.604,0.712,1.604,1.782v7.481l3.519-3.407
	c0.513-0.491,1.024-0.69,1.448-0.69c0.801,0,1.357,0.735,1.357,1.447c0,0.468-0.155,0.847-0.623,1.269l-2.851,2.538l3.764,4.41
	c0.288,0.333,0.4,0.712,0.4,1.068c0,0.847-0.668,1.515-1.515,1.515c-0.579,0-1.024-0.356-1.536-0.98l-3.919-4.832h-0.045v3.896
	c0,1.069-0.668,1.782-1.604,1.782c-0.935,0-1.603-0.713-1.603-1.782V44.538z"/>
<path fill="#FFFFFF" d="M242.85,45.917c-0.318,0.948-1.347,1.497-2.298,1.177c-0.908-0.305-1.434-1.396-1.122-2.326
	c0.291-0.865,1.361-1.397,2.269-1.093C242.608,43.98,243.148,45.03,242.85,45.917z"/>
<g id="Layer_2" opacity="0.2">
	<g>
		<g>
			<path fill="#474443" d="M27.334,392.734c0,62.236,36.167,116.018,88.613,141.506L40.946,328.745
				C32.222,348.301,27.334,369.939,27.334,392.734z"/>
			<path fill="#474443" d="M290.703,384.798c0-19.428-6.979-32.886-12.966-43.361c-7.97-12.95-15.439-23.917-15.439-36.873
				c0-14.45,10.961-27.907,26.4-27.907c0.698,0,1.358,0.088,2.038,0.128c-27.973-25.629-65.241-41.276-106.173-41.276
				c-54.93,0-103.255,28.182-131.368,70.873c3.688,0.111,7.165,0.187,10.118,0.187c16.445,0,41.903-1.999,41.903-1.999
				c8.474-0.497,9.475,11.95,1.008,12.955c0,0-8.518,0.999-17.995,1.496l57.256,170.308l34.408-103.191l-24.496-67.122
				c-8.466-0.498-16.488-1.495-16.488-1.495c-8.472-0.497-7.479-13.451,0.994-12.956c0,0,25.965,1.999,41.414,1.999
				c16.443,0,41.903-1.999,41.903-1.999c8.482-0.496,9.478,11.95,1.008,12.956c0,0-8.536,0.998-17.996,1.495l56.82,169.017
				l15.681-52.403C285.531,413.88,290.703,398.261,290.703,384.798z"/>
			<path fill="#474443" d="M187.321,406.489l-47.174,137.076c14.085,4.143,28.981,6.404,44.417,6.404
				c18.308,0,35.867-3.166,52.21-8.91c-0.421-0.672-0.805-1.392-1.119-2.168L187.321,406.489z"/>
			<path fill="#474443" d="M322.523,317.297c0.676,5.008,1.059,10.389,1.059,16.169c0,15.957-2.979,33.89-11.955,56.315
				l-48.025,138.86c46.742-27.26,78.182-77.902,78.182-135.908C341.787,365.399,334.804,339.695,322.523,317.297z"/>
			<path fill="#474443" d="M184.563,209.46c-101.059,0-183.281,82.215-183.281,183.274c0,101.07,82.222,183.285,183.281,183.285
				c101.055,0,183.288-82.215,183.288-183.285C367.848,291.675,285.618,209.46,184.563,209.46z M184.563,567.616
				c-96.424,0-174.877-78.45-174.877-174.882c0-96.426,78.448-174.871,174.877-174.871c96.421,0,174.866,78.445,174.866,174.871
				C359.43,489.166,280.984,567.616,184.563,567.616z"/>
		</g>
	</g>
</g>
<g>
	<g>
		<g>
			<path fill="#CDCCCC" d="M162.834,219.972l-30.085-22.53c-0.316-0.234-0.628-0.416-0.939-0.585
				c-0.815-0.565-1.836-0.821-2.893-0.665l-27.218,3.906c-1.059,0.156-1.966,0.681-2.592,1.451
				c-0.248,0.256-0.496,0.527-0.732,0.844L75.846,232.47c-1.149,1.535-1.593,3.137-0.994,3.587l7.336,5.491
				c0.599,0.448,2.342-0.473,3.491-2.016l15.348-20.098l4.138,28.812c0.319,2.226,1.725,3.81,3.951,3.492l27.215-3.908
				c2.227-0.32,3.127-2.238,2.807-4.466l-4.136-28.81l20.388,14.976c1.53,1.145,3.302,1.569,3.752,0.969l5.574-7.35
				C165.164,222.55,164.366,221.122,162.834,219.972z"/>
		</g>
		<g>
			<polygon fill="#4E4E4E" points="96.854,224.901 86.264,218.559 89.002,214.905 99.686,221.195 			"/>
		</g>
		<g>
			<polygon fill="#4E4E4E" points="140.478,218.636 148.855,209.577 145.198,206.836 136.718,215.874 			"/>
		</g>
		<g>
			<path fill="#4E4E4E" d="M133.36,232.351c0.319,2.229-1.222,4.293-3.45,4.615l-17.758,2.548c-2.227,0.318-4.292-1.228-4.611-3.457
				l-3.331-23.188c3.454-4.612,0,0,3.454-4.612l17.758-2.551c4.609,3.454,0,0,4.609,3.454L133.36,232.351z"/>
		</g>
		<g>
			<g>
				
					<rect x="106.917" y="215.708" transform="matrix(0.9898 -0.1422 0.1422 0.9898 -29.7621 17.7027)" fill="#2AAAE2" width="4.12" height="2.75"/>
			</g>
			<g>
				
					<rect x="115.064" y="214.442" transform="matrix(0.9898 -0.1422 0.1422 0.9898 -29.4952 18.9485)" fill="#D41C5C" width="5.493" height="2.746"/>
			</g>
			<g>
				<polygon fill="#2AAAE2" points="128.876,215.612 124.801,216.198 124.413,213.481 128.491,212.897 				"/>
			</g>
		</g>
		<g>
			<polygon fill="#F3F3F3" points="131.028,230.562 109.278,233.685 107.329,220.093 129.073,216.972 			"/>
		</g>
		<g>
			<g>
				<path fill="#F3F3F3" d="M115.445,235.979c0.087,0.594-0.326,1.144-0.922,1.229c-0.593,0.087-1.145-0.326-1.23-0.923
					c-0.086-0.595,0.325-1.147,0.921-1.228C114.81,234.972,115.359,235.381,115.445,235.979z"/>
			</g>
			<g>
				<path fill="#F3F3F3" d="M121.676,235.084c0.086,0.594-0.326,1.144-0.92,1.23c-0.598,0.085-1.147-0.324-1.232-0.923
					c-0.087-0.59,0.327-1.146,0.918-1.229C121.041,234.078,121.59,234.487,121.676,235.084z"/>
			</g>
			<g>
				<path fill="#F3F3F3" d="M127.906,234.192c0.083,0.592-0.33,1.144-0.923,1.227c-0.594,0.086-1.144-0.325-1.229-0.924
					c-0.085-0.588,0.328-1.141,0.923-1.224C127.271,233.184,127.821,233.594,127.906,234.192z"/>
			</g>
		</g>
	</g>
	<g>
		
			<rect x="107.868" y="249.985" transform="matrix(0.9898 -0.1423 0.1423 0.9898 -36.7599 19.0843)" fill="#CDCCCC" width="14.382" height="33.171"/>
	</g>
	<g>
		
			<rect x="127.542" y="247.167" transform="matrix(0.9899 -0.1421 0.1421 0.9899 -36.1119 21.822)" fill="#CDCCCC" width="14.38" height="33.166"/>
	</g>
	<g>
		<polygon fill="#4E4E4E" points="140.121,249.215 105.909,254.126 105.069,248.26 139.275,243.345 		"/>
	</g>
	<g>
		
			<rect x="109.213" y="282.967" transform="matrix(0.9898 -0.1423 0.1423 0.9898 -39.3784 19.6504)" fill="#4E4E4E" width="17.052" height="4.517"/>
	</g>
	<g>
		
			<rect x="128.882" y="280.141" transform="matrix(0.9898 -0.1422 0.1422 0.9898 -38.7533 22.4041)" fill="#4E4E4E" width="17.052" height="4.517"/>
	</g>
	<g>
		<path fill="#CDCCCC" d="M132.062,183.448c1.469,10.229-5.632,19.713-15.859,21.176c-10.228,1.47-19.708-5.63-21.176-15.86
			c-1.468-10.22,5.631-19.703,15.856-21.174C121.113,166.125,130.594,173.224,132.062,183.448z"/>
	</g>
	<g>
		<path fill="#4E4E4E" d="M128.288,185.372c1.188,8.273-4.363,15.914-12.401,17.065c-8.033,1.157-15.508-4.617-16.695-12.891
			c-1.189-8.273,4.366-15.915,12.394-17.073C119.624,171.321,127.1,177.094,128.288,185.372z"/>
	</g>
	<g>
		<path fill="#333333" d="M99.191,189.547c-0.432-1.913-0.418-3.937-0.061-5.895c0.396-1.954,1.188-3.845,2.31-5.522
			c2.231-3.384,5.991-5.764,10.051-6.332c4.055-0.597,8.328,0.623,11.424,3.246c1.554,1.294,2.839,2.882,3.772,4.651
			c0.893,1.783,1.476,3.721,1.601,5.678c-0.824-3.826-2.978-7.265-6.02-9.502c-3.032-2.24-6.893-3.277-10.583-2.71
			c-3.698,0.491-7.116,2.575-9.392,5.577C100.001,181.742,98.903,185.65,99.191,189.547z"/>
	</g>
	<g>
		<path fill="#4E4E4E" d="M78.155,250.149c-0.939,0.13-1.921-0.223-2.554-1.027c-0.936-1.187-0.728-2.917,0.463-3.85
			c0.333-0.262,0.583-0.596,0.743-0.987c0.239-0.592,0.234-1.25-0.018-1.843c-0.25-0.592-0.712-1.049-1.312-1.29
			c-0.595-0.242-1.249-0.235-1.837,0.017c-0.591,0.25-1.049,0.717-1.288,1.308c-0.571,1.407-2.172,2.086-3.578,1.516
			c-1.405-0.571-2.083-2.169-1.513-3.577c0.791-1.952,2.293-3.482,4.233-4.306c1.943-0.821,4.091-0.84,6.046-0.047
			c4.035,1.633,5.989,6.246,4.357,10.283c-0.519,1.274-1.361,2.395-2.437,3.242C79.066,249.896,78.613,250.081,78.155,250.149z"/>
	</g>
	<g>
		<path fill="#4E4E4E" d="M165.525,237.6c-0.463,0.069-0.945,0.019-1.41-0.167c-1.27-0.514-2.394-1.347-3.248-2.423
			c-2.704-3.419-2.13-8.394,1.281-11.094c1.655-1.312,3.716-1.896,5.815-1.658c2.095,0.245,3.967,1.289,5.276,2.94
			c0.943,1.194,0.743,2.918-0.446,3.86c-1.193,0.94-2.918,0.743-3.857-0.447c-0.402-0.504-0.969-0.819-1.609-0.894
			c-0.634-0.075-1.261,0.102-1.768,0.499c-0.504,0.402-0.818,0.972-0.895,1.61c-0.073,0.634,0.105,1.266,0.502,1.768
			c0.265,0.333,0.602,0.584,0.99,0.738c1.407,0.567,2.09,2.165,1.529,3.572C167.306,236.847,166.463,237.469,165.525,237.6z"/>
	</g>
	<g>
		<path fill="#676767" d="M121.177,198.206c-0.453,0.066-0.923-0.098-1.239-0.466c-0.496-0.575-0.429-1.441,0.146-1.935
			c6.333-5.44,1.551-13.096,1.346-13.421c-0.411-0.635-0.224-1.488,0.415-1.896c0.643-0.406,1.488-0.223,1.897,0.416
			c2.196,3.433,4.628,11.402-1.867,16.985C121.668,198.061,121.424,198.168,121.177,198.206z"/>
	</g>
	<g>
		<path fill="#676767" d="M121.399,178.041c0.122,0.844-0.463,1.631-1.31,1.75c-0.844,0.122-1.627-0.464-1.748-1.31
			c-0.12-0.841,0.464-1.625,1.308-1.749C120.496,176.611,121.276,177.195,121.399,178.041z"/>
	</g>
</g>
<g>
	<path fill-rule="evenodd" clip-rule="evenodd" fill="#414142" d="M92.132,251.082l57.594-7.603l-3.836-29.059
		c-0.136-1.031-1.083-1.757-2.114-1.621l-53.858,7.11c-1.031,0.137-1.757,1.084-1.622,2.115L92.132,251.082z"/>
	<path fill-rule="evenodd" clip-rule="evenodd" fill="#7D868A" d="M145.889,214.423l0.114,0.867
		c-0.137-1.039-1.085-1.765-2.113-1.629l-53.86,7.11c-1.028,0.136-1.754,1.083-1.617,2.122l-0.114-0.867
		c-0.137-1.037,0.589-1.985,1.617-2.121l53.859-7.11C144.803,212.659,145.751,213.386,145.889,214.423z"/>
	<path fill-rule="evenodd" clip-rule="evenodd" fill="#6E6F71" d="M146.003,215.29l3.721,28.184l-57.59,7.603l-3.721-28.184
		c-0.137-1.039,0.589-1.986,1.617-2.122l53.86-7.11C144.917,213.525,145.866,214.251,146.003,215.29z"/>
	
		<rect x="92.016" y="246.633" transform="matrix(-0.9914 0.1309 -0.1309 -0.9914 273.5822 478.6043)" fill-rule="evenodd" clip-rule="evenodd" fill="#595A5C" width="58.093" height="3.32"/>
	
		<rect x="92.207" y="249.534" transform="matrix(-0.9914 0.1309 -0.1309 -0.9914 274.1509 481.4556)" fill-rule="evenodd" clip-rule="evenodd" fill="#414142" width="58.093" height="0.406"/>
	
		<rect x="96.194" y="245.489" transform="matrix(0.9914 -0.1309 0.1309 0.9914 -31.3167 17.9538)" fill-rule="evenodd" clip-rule="evenodd" fill="#808184" width="49.452" height="3.444"/>
	
		<rect x="120.455" y="221.051" transform="matrix(0.1296 0.9916 -0.9916 0.1296 348.7871 94.2108)" fill-rule="evenodd" clip-rule="evenodd" fill="#595A5C" width="0.55" height="49.452"/>
</g>
<circle fill-rule="evenodd" clip-rule="evenodd" fill="#FFFFFF" cx="119.962" cy="232.2" r="2.844"/>
<g>
	<g>
		<g>
			<path fill="#CDCCCC" d="M303.444,212.152l-19.074-32.386c-0.203-0.337-0.42-0.625-0.641-0.902
				c-0.535-0.835-1.379-1.465-2.414-1.729l-26.62-6.887c-1.037-0.265-2.076-0.13-2.951,0.34c-0.327,0.141-0.66,0.295-1.001,0.496
				l-32.382,19.07c-1.652,0.973-2.679,2.28-2.3,2.926l4.652,7.895c0.379,0.645,2.344,0.467,3.998-0.515l21.909-12.629l-7.288,28.181
				c-0.563,2.176,0.123,4.181,2.3,4.746l26.619,6.885c2.178,0.562,3.748-0.86,4.311-3.04l7.289-28.178l13.039,21.679
				c0.971,1.646,2.443,2.72,3.09,2.339l7.977-4.633C304.601,215.429,304.415,213.804,303.444,212.152z"/>
		</g>
		<g>
			<polygon fill="#4E4E4E" points="240.664,191.267 233.336,181.333 237.271,179.017 244.705,188.938 			"/>
		</g>
		<g>
			<polygon fill="#4E4E4E" points="283.331,202.301 294.554,197.172 292.235,193.233 280.927,198.303 			"/>
		</g>
		<g>
			<path fill="#4E4E4E" d="M271.476,212.213c-0.564,2.18-2.781,3.49-4.961,2.929l-17.369-4.494
				c-2.178-0.564-3.486-2.788-2.922-4.967l5.864-22.679c4.965-2.925,0,0,4.965-2.925l17.369,4.491c2.922,4.964,0,0,2.922,4.964
				L271.476,212.213z"/>
		</g>
		<g>
			<g>
				
					<rect x="252.803" y="187.351" transform="matrix(0.9682 0.2501 -0.2501 0.9682 55.2891 -57.7346)" fill="#2AAAE2" width="4.12" height="2.751"/>
			</g>
			<g>
				<polygon fill="#D41C5C" points="265.819,192.979 260.501,191.604 261.187,188.944 266.503,190.321 				"/>
			</g>
			<g>
				<polygon fill="#2AAAE2" points="273.792,195.039 269.806,194.009 270.495,191.352 274.483,192.385 				"/>
			</g>
		</g>
		<g>
			<polygon fill="#F3F3F3" points="270.015,209.664 248.742,204.161 252.182,190.868 273.448,196.37 			"/>
		</g>
		<g>
			<g>
				<circle fill="#F3F3F3" cx="252.496" cy="208.382" r="1.087"/>
			</g>
			<g>
				<path fill="#F3F3F3" d="M259.642,210.232c-0.148,0.582-0.742,0.93-1.322,0.78c-0.586-0.152-0.934-0.742-0.781-1.327
					c0.146-0.579,0.742-0.932,1.32-0.78C259.444,209.058,259.792,209.647,259.642,210.232z"/>
			</g>
			<g>
				<path fill="#F3F3F3" d="M265.733,211.809c-0.152,0.579-0.744,0.929-1.324,0.777c-0.58-0.149-0.93-0.742-0.777-1.327
					c0.148-0.576,0.742-0.927,1.322-0.774C265.536,210.635,265.886,211.225,265.733,211.809z"/>
			</g>
		</g>
	</g>
	<g>
		
			<rect x="234.208" y="220.148" transform="matrix(0.9682 0.2503 -0.2503 0.9682 66.9268 -52.8795)" fill="#CDCCCC" width="14.381" height="33.171"/>
	</g>
	<g>
		
			<rect x="253.448" y="225.132" transform="matrix(0.9681 0.2505 -0.2505 0.9681 68.8523 -57.5787)" fill="#CDCCCC" width="14.381" height="33.166"/>
	</g>
	<g>
		<polygon fill="#4E4E4E" points="271.214,230.38 237.753,221.723 239.24,215.987 272.696,224.638 		"/>
	</g>
	<g>
		
			<rect x="228.155" y="252.721" transform="matrix(0.9682 0.2502 -0.2502 0.9682 71.3372 -51.1151)" fill="#4E4E4E" width="17.052" height="4.517"/>
	</g>
	<g>
		
			<rect x="247.393" y="257.697" transform="matrix(0.9681 0.2504 -0.2504 0.9681 73.2469 -55.8015)" fill="#4E4E4E" width="17.053" height="4.517"/>
	</g>
	<g>
		<path fill="#CDCCCC" d="M289.13,166.589c-2.588,10.005-12.797,16.019-22.797,13.426c-10.003-2.586-16.014-12.792-13.425-22.797
			c2.585-9.997,12.791-16.01,22.792-13.426C285.704,146.384,291.716,156.589,289.13,166.589z"/>
	</g>
	<g>
		<path fill="#4E4E4E" d="M284.905,166.909c-2.094,8.093-10.16,13.002-18.021,10.967c-7.857-2.029-12.53-10.238-10.436-18.331
			c2.092-8.092,10.163-13.002,18.018-10.976C282.327,150.604,286.999,158.814,284.905,166.909z"/>
	</g>
	<g>
		<path fill="#333333" d="M256.448,159.545c0.338-1.932,1.131-3.793,2.217-5.463c1.119-1.65,2.578-3.089,4.26-4.204
			c3.363-2.263,7.75-3.01,11.715-1.969c3.971,1.012,7.443,3.785,9.289,7.397c0.936,1.793,1.51,3.755,1.688,5.746
			c0.137,1.989-0.072,4.002-0.711,5.856c0.715-3.847,0.053-7.851-1.893-11.087c-1.934-3.236-5.096-5.681-8.719-6.581
			c-3.602-0.972-7.559-0.367-10.816,1.526C260.204,152.656,257.685,155.839,256.448,159.545z"/>
	</g>
	<g>
		<path fill="#4E4E4E" d="M213.677,207.355c-0.917-0.241-1.687-0.947-1.96-1.932c-0.406-1.456,0.453-2.972,1.911-3.374
			c0.408-0.113,0.767-0.325,1.066-0.625c0.449-0.454,0.698-1.063,0.694-1.708c-0.003-0.642-0.253-1.242-0.713-1.696
			c-0.456-0.452-1.062-0.699-1.702-0.692c-0.642,0.003-1.245,0.257-1.692,0.71c-1.069,1.079-2.808,1.088-3.885,0.02
			c-1.076-1.068-1.085-2.805-0.018-3.884c1.482-1.496,3.458-2.329,5.565-2.342c2.109-0.009,4.099,0.801,5.597,2.287
			c3.094,3.062,3.119,8.071,0.057,11.168c-0.97,0.975-2.179,1.684-3.498,2.052C214.615,207.474,214.126,207.469,213.677,207.355z"/>
	</g>
	<g>
		<path fill="#4E4E4E" d="M299.132,229.455c-0.453-0.114-0.879-0.347-1.236-0.697c-0.975-0.964-1.689-2.165-2.062-3.487
			c-1.178-4.197,1.27-8.566,5.459-9.743c2.031-0.572,4.16-0.317,6.004,0.712c1.84,1.032,3.164,2.718,3.736,4.747
			c0.41,1.465-0.439,2.979-1.9,3.39c-1.463,0.407-2.979-0.44-3.387-1.899c-0.176-0.62-0.578-1.13-1.141-1.445
			c-0.557-0.313-1.203-0.392-1.822-0.221c-0.621,0.176-1.131,0.581-1.447,1.141c-0.311,0.557-0.391,1.209-0.217,1.826
			c0.115,0.41,0.33,0.771,0.629,1.062c1.078,1.065,1.094,2.803,0.033,3.884C301.065,229.447,300.048,229.696,299.132,229.455z"/>
	</g>
	<g>
		<path fill="#676767" d="M273.397,176.011c-0.443-0.114-0.814-0.447-0.965-0.908c-0.236-0.722,0.16-1.495,0.881-1.729
			c7.939-2.579,6.479-11.486,6.414-11.866c-0.133-0.744,0.367-1.459,1.115-1.589c0.75-0.127,1.459,0.368,1.59,1.114
			c0.703,4.015-0.125,12.305-8.27,14.954C273.905,176.066,273.64,176.072,273.397,176.011z"/>
	</g>
	<g>
		<path fill="#676767" d="M281.374,157.489c-0.213,0.825-1.055,1.326-1.883,1.11c-0.824-0.214-1.322-1.056-1.107-1.884
			c0.213-0.822,1.055-1.319,1.881-1.109C281.093,155.822,281.587,156.662,281.374,157.489z"/>
	</g>
</g>
<g>
	<path fill-rule="evenodd" clip-rule="evenodd" fill="#414142" d="M228.572,214.615l55.974,15.552l7.846-28.242
		c0.278-1.002-0.309-2.041-1.312-2.32l-52.341-14.543c-1.003-0.278-2.042,0.31-2.321,1.312L228.572,214.615z"/>
	<path fill-rule="evenodd" clip-rule="evenodd" fill="#7D868A" d="M292.389,201.928l-0.233,0.842
		c0.28-1.009-0.308-2.048-1.307-2.327L238.504,185.9c-0.999-0.277-2.039,0.31-2.319,1.319l0.235-0.842
		c0.279-1.008,1.319-1.596,2.318-1.319l52.343,14.543C292.08,199.878,292.669,200.919,292.389,201.928z"/>
	<path fill-rule="evenodd" clip-rule="evenodd" fill="#6E6F71" d="M292.155,202.77l-7.61,27.391l-55.97-15.55l7.609-27.391
		c0.28-1.009,1.32-1.597,2.319-1.319l52.345,14.543C291.848,200.721,292.436,201.76,292.155,202.77z"/>
	
		<rect x="227.238" y="221.715" transform="matrix(-0.9635 -0.2677 0.2677 -0.9635 443.4236 507.2019)" fill-rule="evenodd" clip-rule="evenodd" fill="#595A5C" width="58.094" height="3.319"/>
	
		<rect x="226.849" y="224.575" transform="matrix(-0.9635 -0.2677 0.2677 -0.9635 442.2828 509.853)" fill-rule="evenodd" clip-rule="evenodd" fill="#414142" width="58.094" height="0.406"/>
	
		<rect x="231.852" y="220.601" transform="matrix(0.9635 0.2677 -0.2677 0.9635 68.8746 -60.5675)" fill-rule="evenodd" clip-rule="evenodd" fill="#808184" width="49.45" height="3.444"/>
	
		<rect x="256.69" y="196.203" transform="matrix(-0.2681 0.9634 -0.9634 -0.2681 538.7079 32.6169)" fill-rule="evenodd" clip-rule="evenodd" fill="#595A5C" width="0.55" height="49.452"/>
</g>
<circle fill-rule="evenodd" clip-rule="evenodd" fill="#FFFFFF" cx="260.517" cy="207.58" r="2.844"/>
</svg>
