<?xml version="1.0" encoding="utf-8"?>
<!-- Generator: Adobe Illustrator 16.0.0, SVG Export Plug-In . SVG Version: 6.00 Build 0)  -->
<!DOCTYPE svg PUBLIC "-//W3C//DTD SVG 1.1//EN" "http://www.w3.org/Graphics/SVG/1.1/DTD/svg11.dtd">
<svg version="1.1" id="Layer_1" xmlns="http://www.w3.org/2000/svg" xmlns:xlink="http://www.w3.org/1999/xlink" x="0px" y="0px"
	 width="165.773px" height="304.98px" viewBox="0 0 165.773 304.98" enable-background="new 0 0 165.773 304.98"
	 xml:space="preserve">
<g>
	<path fill="none" stroke="#F3F3F3" stroke-width="3" stroke-miterlimit="10" d="M77.478,157.732
		c1.244,9.488,6.515,18.57,9.829,27.436c2.773,7.418,2.509,15.51,0.985,23.23c-0.938,4.751-3.335,10.099-6.627,13.782
		c-2.329,2.604-6.925,2.775-9.95,4.509c-6.837,3.914-9.468,12.5-10.367,19.882c-0.613,5.038-2.66,8.757-7.113,11.456
		c-3.647,2.212-7.824,3.213-12.082,3.117"/>
	<g>
		<polygon fill="none" points="96.766,48.455 69.765,57.271 88.439,68.717 		"/>
		<polygon fill="none" points="68.431,53.195 95.437,44.377 76.756,32.917 		"/>
		<polygon fill="none" points="67.913,61.118 78.363,93.123 86.767,72.674 		"/>
		<polygon fill="none" points="88.991,97.613 98.805,100.635 104.335,92.604 		"/>
		<polygon fill="none" points="159.35,230.616 148.897,198.602 140.489,219.059 		"/>
		<polygon fill="none" points="54.166,19.012 64.628,51.056 73.032,30.584 		"/>
		<polygon fill="none" points="82.135,95.342 108.341,86.784 108.75,86.193 90.492,75.004 		"/>
		<polygon fill="none" points="97.245,40.406 86.785,8.373 78.384,28.837 		"/>
		<polygon fill="none" points="110.983,82.483 100.529,50.468 92.125,70.925 		"/>
		<polygon fill="none" points="83.041,6.315 55.987,15.147 74.702,26.627 		"/>
		<polygon fill="none" points="130.501,243.473 157.601,234.627 138.859,223.139 		"/>
		<polygon fill="none" points="116.28,209.251 126.73,241.258 135.132,220.808 		"/>
		<polygon fill="none" points="145.61,188.538 135.154,156.506 126.75,176.969 		"/>
		<polygon fill="none" points="145.131,196.588 118.129,205.405 136.805,216.85 		"/>
		<polygon fill="none" points="102.532,167.147 112.994,199.189 121.397,178.717 		"/>
		<polygon fill="none" points="114.582,148.954 108.196,157.515 124.156,152.304 		"/>
		<polygon fill="none" points="131.266,154.793 130.825,154.638 104.355,163.281 123.068,174.76 		"/>
		<polygon fill="none" points="116.797,201.329 143.803,192.508 125.122,181.051 		"/>
		<path fill="#F3F3F3" d="M141.194,137.718c1.467,2.527,4.715,4.218,7.733,3.402L131.19,86.795
			c-2.874,1.107-4.646,3.823-4.386,6.743l-0.843,0.276l14.421,44.169L141.194,137.718z"/>
		<path fill="#989898" d="M136.928,148.134l-6.056,1.977l-13.34-4.667l-0.316-0.11l-14.146-43.329l0.635-0.922l7.348-10.67
			l6.353-2.076L88.563,0l-40.77,13.312l28.842,88.336l5.282-1.725l13.038,4.013l-30.15,9.845l0.104,0.316
			c-0.001-0.002-0.206,0.062-0.277,0.083c-7.703,2.516-13.206,8.681-15.214,15.953c-5.905-4.69-13.972-6.423-21.675-3.908
			c-0.071,0.025-0.138,0.051-0.207,0.075l-0.103-0.317l-9.513,3.108l14.421,44.167l9.513-3.105l0.1,0.305
			c0.069-0.023,0.141-0.041,0.211-0.064c7.704-2.516,13.194-8.679,15.193-15.95c5.918,4.687,14.006,6.416,21.711,3.9
			c0.071-0.023,0.257-0.089,0.257-0.089l-0.1-0.305l30.792-10.053l-8.898,11.928l-4.961,1.62l28.842,88.339l40.771-13.315
			L136.928,148.134z M108.341,86.784l-26.206,8.558l8.356-20.337l18.258,11.189L108.341,86.784z M110.983,82.483L92.125,70.925
			l8.404-20.458L110.983,82.483z M97.245,40.406l-18.86-11.569l8.4-20.465L97.245,40.406z M83.041,6.315l-8.339,20.312
			l-18.714-11.48L83.041,6.315z M54.166,19.012l18.866,11.573l-8.403,20.471L54.166,19.012z M68.431,53.195l8.325-20.278
			l18.681,11.46L68.431,53.195z M96.766,48.455l-8.327,20.262L69.765,57.271L96.766,48.455z M67.913,61.118l18.854,11.556
			l-8.404,20.449L67.913,61.118z M88.991,97.613l15.345-5.009l-5.53,8.03L88.991,97.613z M159.35,230.616l-18.861-11.558
			l8.408-20.457L159.35,230.616z M145.61,188.538l-18.86-11.569l8.404-20.463L145.61,188.538z M130.825,154.638l0.441,0.155
			l-8.198,19.967l-18.713-11.479L130.825,154.638z M114.582,148.954l9.574,3.35l-15.96,5.211L114.582,148.954z M102.532,167.147
			l18.865,11.57l-8.403,20.472L102.532,167.147z M116.797,201.329l8.324-20.278l18.682,11.457L116.797,201.329z M145.131,196.588
			l-8.326,20.262l-18.676-11.444L145.131,196.588z M116.28,209.251l18.853,11.557l-8.402,20.45L116.28,209.251z M130.501,243.473
			l8.357-20.334l18.742,11.488L130.501,243.473z"/>
		<polygon fill="#2AAAE2" points="117.216,145.333 117.533,145.443 140.382,137.983 125.961,93.814 103.705,101.082 103.07,102.004 
					"/>
	</g>
	<g>
		<g>
			<g>
				<path fill="#CDCCCC" d="M66.134,270.445l-13.705-21.022c-0.144-0.22-0.299-0.405-0.454-0.583
					c-0.382-0.541-0.963-0.935-1.663-1.08l-17.964-3.787c-0.699-0.145-1.389-0.023-1.958,0.317
					c-0.213,0.103-0.432,0.216-0.652,0.361l-21.021,13.7c-1.072,0.699-1.718,1.603-1.445,2.021l3.342,5.126
					c0.272,0.418,1.577,0.24,2.651-0.465l14.23-9.089l-4.007,19.018c-0.31,1.47,0.209,2.785,1.678,3.097l17.963,3.785
					c1.47,0.308,2.474-0.688,2.784-2.158l4.007-19.017l9.354,14.064c0.697,1.068,1.711,1.741,2.131,1.468l5.18-3.332
					C67.004,272.596,66.831,271.518,66.134,270.445z"/>
			</g>
			<g>
				<polygon fill="#4E4E4E" points="23.625,258.419 18.438,252.015 20.992,250.351 26.25,256.742 				"/>
			</g>
			<g>
				<polygon fill="#4E4E4E" points="52.419,264.485 59.749,260.724 58.083,258.167 50.694,261.892 				"/>
			</g>
			<g>
				<path fill="#4E4E4E" d="M44.813,271.455c-0.311,1.472-1.75,2.412-3.221,2.104l-11.721-2.471c-1.469-0.31-2.41-1.753-2.099-3.225
					l3.224-15.305c3.222-2.101,0,0,3.222-2.101l11.722,2.469c2.1,3.222,0,0,2.1,3.222L44.813,271.455z"/>
			</g>
			<g>
				<g>
					
						<rect x="31.644" y="255.376" transform="matrix(0.9785 0.2062 -0.2062 0.9785 53.5687 -1.2999)" fill="#2AAAE2" width="2.751" height="1.836"/>
				</g>
				<g>
					
						<rect x="37.016" y="256.605" transform="matrix(0.9785 0.2061 -0.2061 0.9785 53.9141 -2.4779)" fill="#D41C5C" width="3.667" height="1.835"/>
				</g>
				<g>
					
						<rect x="43.307" y="257.834" transform="matrix(0.9786 0.2057 -0.2057 0.9786 54.1917 -3.657)" fill="#2AAAE2" width="2.748" height="1.832"/>
				</g>
			</g>
			<g>
				
					<rect x="30.193" y="259.216" transform="matrix(0.9785 0.2062 -0.2062 0.9785 55.1917 -2.0699)" fill="#F3F3F3" width="14.67" height="9.169"/>
			</g>
			<g>
				<g>
					<circle fill="#F3F3F3" cx="32.036" cy="269.476" r="0.725"/>
				</g>
				<g>
					<path fill="#F3F3F3" d="M36.859,270.493c-0.082,0.392-0.466,0.643-0.859,0.56c-0.395-0.083-0.645-0.466-0.56-0.861
						c0.081-0.39,0.467-0.644,0.858-0.56C36.692,269.716,36.942,270.098,36.859,270.493z"/>
				</g>
				<g>
					<path fill="#F3F3F3" d="M40.97,271.359c-0.083,0.392-0.468,0.643-0.86,0.56c-0.391-0.082-0.643-0.467-0.559-0.861
						c0.082-0.389,0.467-0.642,0.859-0.558C40.802,270.582,41.054,270.966,40.97,271.359z"/>
				</g>
			</g>
		</g>
		<g>
			
				<rect x="20.693" y="277.648" transform="matrix(0.9785 0.2061 -0.2061 0.9785 60.0387 0.9425)" fill="#CDCCCC" width="9.602" height="22.149"/>
		</g>
		<g>
			
				<rect x="33.678" y="280.388" transform="matrix(0.9785 0.2062 -0.2062 0.9785 60.917 -1.6714)" fill="#CDCCCC" width="9.601" height="22.145"/>
		</g>
		<g>
			
				<rect x="22.768" y="277.287" transform="matrix(0.9785 0.2063 -0.2063 0.9785 58.3499 -1.0702)" fill="#4E4E4E" width="23.077" height="3.956"/>
		</g>
		<g>
			
				<rect x="17.208" y="299.527" transform="matrix(0.9785 0.206 -0.206 0.9785 62.513 1.7401)" fill="#4E4E4E" width="11.385" height="3.017"/>
		</g>
		<g>
			
				<rect x="30.191" y="302.264" transform="matrix(0.9785 0.2063 -0.2063 0.9785 63.4373 -0.8685)" fill="#4E4E4E" width="11.385" height="3.015"/>
		</g>
		<g>
			<path fill="#CDCCCC" d="M55.205,240.489c-1.423,6.752-8.049,11.071-14.798,9.646c-6.751-1.422-11.07-8.047-9.646-14.799
				c1.422-6.747,8.046-11.067,14.796-9.646C52.307,227.115,56.627,233.74,55.205,240.489z"/>
		</g>
		<g>
			
				<ellipse transform="matrix(0.9785 0.2062 -0.2062 0.9785 50.1723 -3.6919)" fill="#4E4E4E" cx="42.794" cy="238.806" rx="9.813" ry="10.103"/>
		</g>
		<g>
			<path fill="#333333" d="M33.192,236.782c0.167-1.299,0.641-2.564,1.313-3.712c0.696-1.135,1.625-2.139,2.714-2.934
				c2.174-1.611,5.078-2.241,7.753-1.668c2.68,0.555,5.081,2.3,6.421,4.652c0.678,1.168,1.12,2.459,1.3,3.782
				c0.152,1.322,0.074,2.671-0.297,3.927c0.359-2.587-0.203-5.237-1.599-7.338c-1.387-2.1-3.571-3.634-6.015-4.125
				c-2.432-0.538-5.052-0.015-7.167,1.347C35.488,232.072,33.904,234.271,33.192,236.782z"/>
		</g>
		<g>
			<path fill="#4E4E4E" d="M6.113,269.968c-0.619-0.133-1.154-0.58-1.366-1.229c-0.315-0.96,0.212-1.997,1.172-2.31
				c0.269-0.087,0.502-0.24,0.692-0.449c0.286-0.316,0.434-0.73,0.412-1.16c-0.022-0.428-0.207-0.819-0.527-1.109
				c-0.318-0.287-0.729-0.433-1.156-0.409c-0.428,0.021-0.822,0.208-1.107,0.524c-0.68,0.752-1.84,0.811-2.591,0.132
				c-0.75-0.68-0.809-1.838-0.129-2.59c0.943-1.044,2.236-1.658,3.641-1.73c1.407-0.07,2.758,0.41,3.803,1.354
				c2.156,1.949,2.325,5.289,0.376,7.447c-0.617,0.68-1.402,1.189-2.271,1.475C6.743,270.018,6.417,270.029,6.113,269.968z"/>
		</g>
		<g>
			<path fill="#4E4E4E" d="M63.782,282.117c-0.306-0.062-0.598-0.205-0.846-0.428c-0.679-0.613-1.193-1.393-1.481-2.264
				c-0.913-2.764,0.587-5.751,3.346-6.663c1.338-0.444,2.765-0.338,4.026,0.293c1.258,0.632,2.193,1.716,2.636,3.052
				c0.318,0.966-0.203,2-1.165,2.319c-0.962,0.315-1.999-0.204-2.316-1.164c-0.137-0.408-0.42-0.737-0.804-0.931
				c-0.381-0.191-0.815-0.225-1.223-0.091c-0.409,0.137-0.737,0.421-0.93,0.805c-0.192,0.38-0.225,0.817-0.09,1.224
				c0.089,0.27,0.243,0.505,0.452,0.69c0.752,0.677,0.815,1.835,0.14,2.589C65.071,282.054,64.4,282.25,63.782,282.117z"/>
		</g>
		<g>
			<path fill="#676767" d="M44.996,247.25c-0.298-0.062-0.556-0.272-0.669-0.576c-0.179-0.475,0.061-1.002,0.534-1.18
				c5.217-1.961,3.974-7.857,3.919-8.109c-0.111-0.492,0.201-0.984,0.695-1.094c0.496-0.106,0.984,0.201,1.094,0.696
				c0.59,2.656,0.29,8.21-5.063,10.225C45.337,247.272,45.161,247.284,44.996,247.25z"/>
		</g>
		<g>
			<circle fill="#676767" cx="48.747" cy="234.442" r="1.031"/>
		</g>
	</g>
</g>
<g>
	<path fill-rule="evenodd" clip-rule="evenodd" fill="#414142" d="M19.744,271.033l31.677,6.784l3.422-15.982
		c0.122-0.566-0.24-1.126-0.808-1.247l-29.622-6.344c-0.567-0.122-1.126,0.24-1.248,0.807L19.744,271.033z"/>
	<path fill-rule="evenodd" clip-rule="evenodd" fill="#7D868A" d="M54.842,261.836l-0.103,0.477c0.123-0.57-0.239-1.13-0.805-1.252
		l-29.622-6.343c-0.566-0.122-1.124,0.24-1.247,0.812l0.102-0.479c0.123-0.569,0.682-0.933,1.247-0.811l29.622,6.345
		C54.602,260.706,54.964,261.266,54.842,261.836z"/>
	<path fill-rule="evenodd" clip-rule="evenodd" fill="#6E6F71" d="M54.739,262.312l-3.319,15.501l-31.675-6.782l3.32-15.501
		c0.123-0.572,0.681-0.935,1.247-0.812l29.622,6.343C54.5,261.183,54.862,261.742,54.739,262.312z"/>
	
		<rect x="19.266" y="274.056" transform="matrix(-0.9778 -0.2094 0.2094 -0.9778 12.5522 551.2939)" fill-rule="evenodd" clip-rule="evenodd" fill="#595A5C" width="32.395" height="1.853"/>
	
		<rect x="19.095" y="275.663" transform="matrix(-0.9778 -0.2094 0.2094 -0.9778 12.0488 552.8295)" fill-rule="evenodd" clip-rule="evenodd" fill="#414142" width="32.395" height="0.228"/>
	
		<rect x="21.802" y="273.428" transform="matrix(0.9778 0.2094 -0.2094 0.9778 58.256 -1.3685)" fill-rule="evenodd" clip-rule="evenodd" fill="#808184" width="27.576" height="1.919"/>
	
		<rect x="35.606" y="259.81" transform="matrix(-0.2093 0.9778 -0.9778 -0.2093 310.7815 295.8983)" fill-rule="evenodd" clip-rule="evenodd" fill="#595A5C" width="0.306" height="27.576"/>
</g>
<circle fill-rule="evenodd" clip-rule="evenodd" fill="#FFFFFF" cx="37.305" cy="266.019" r="1.723"/>
</svg>
